<?xml version="1.0" standalone="no"?>
<!DOCTYPE svg PUBLIC "-//W3C//DTD SVG 20010904//EN"
 "http://www.w3.org/TR/2001/REC-SVG-20010904/DTD/svg10.dtd">
<svg version="1.0" xmlns="http://www.w3.org/2000/svg"
 width="375.000000pt" height="375.000000pt" viewBox="0 0 375.000000 375.000000"
 preserveAspectRatio="xMidYMid meet">
<metadata>
Created by potrace 1.14, written by Peter Selinger 2001-2017
</metadata>
<g transform="translate(0.000000,375.000000) scale(0.100000,-0.100000)"
fill="#000000" stroke="none">
<path d="M2344 3321 c-3 -3 -26 -6 -52 -7 -26 -1 -49 -3 -52 -4 -3 -1 -8 -2
-12 -1 -5 0 -8 -3 -8 -8 0 -5 -8 -8 -17 -6 -10 1 -22 0 -28 -4 -5 -3 -14 -6
-20 -8 -45 -10 -56 -13 -72 -21 -10 -6 -22 -11 -28 -13 -5 -1 -18 -4 -27 -7
-10 -2 -18 -7 -18 -11 0 -4 -16 -13 -35 -20 -20 -7 -62 -38 -95 -70 -33 -31
-62 -56 -63 -55 -4 4 -122 -175 -119 -181 1 -3 -5 -19 -13 -35 -9 -17 -13 -30
-9 -30 4 0 2 -6 -4 -13 -26 -31 -41 -213 -26 -323 4 -27 7 -64 8 -81 1 -18 3
-33 6 -33 3 0 6 -8 7 -17 1 -10 4 -31 8 -48 4 -16 8 -37 10 -45 2 -8 4 -17 6
-20 1 -3 3 -9 3 -15 1 -5 8 -21 16 -35 7 -14 13 -26 13 -27 -4 -10 11 -43 19
-43 5 0 6 -4 3 -10 -3 -5 -1 -10 4 -10 6 0 10 -3 9 -7 -1 -5 3 -18 10 -29 6
-12 8 -24 5 -28 -3 -3 -2 -6 3 -6 6 0 16 -16 24 -35 8 -19 17 -35 22 -35 4 0
7 -3 7 -7 -3 -14 25 -73 34 -73 4 0 5 -5 2 -10 -3 -5 -1 -10 5 -10 6 0 9 -4 6
-9 -4 -5 -3 -11 1 -13 5 -1 23 -32 41 -68 19 -36 52 -100 73 -142 22 -43 40
-81 41 -85 0 -5 9 -20 20 -35 11 -16 17 -28 13 -28 -3 0 1 -12 9 -27 25 -45
57 -129 72 -185 2 -10 7 -28 10 -41 15 -59 21 -164 12 -222 -5 -31 -28 -66
-39 -60 -5 4 -9 2 -9 -2 0 -8 -39 -16 -67 -14 -35 3 -43 5 -43 13 0 5 -4 7 -8
4 -4 -3 -28 18 -53 46 -114 132 -171 175 -234 174 -16 -1 -33 4 -37 9 -5 6 -8
5 -8 -2 0 -7 -7 -13 -16 -13 -15 0 -91 -37 -104 -50 -3 -3 -29 -23 -57 -45
-29 -21 -53 -43 -53 -47 0 -4 -6 -7 -12 -6 -7 2 -12 -3 -10 -9 1 -7 -1 -13 -5
-13 -5 0 -21 -11 -37 -25 -16 -14 -26 -25 -23 -25 4 0 -40 -48 -98 -106 -58
-58 -109 -102 -115 -99 -5 3 -10 2 -10 -4 0 -13 -73 -24 -108 -17 -25 6 -95
56 -77 56 4 0 2 6 -4 13 -20 25 -12 147 10 147 5 0 8 4 7 8 -6 18 93 129 147
168 86 60 183 114 206 114 9 0 22 7 29 15 7 9 19 14 26 11 7 -3 16 -1 20 5 3
6 12 8 20 5 8 -3 14 -1 14 5 0 6 4 7 10 4 6 -3 7 1 4 9 -3 9 -10 14 -14 11 -5
-3 -11 1 -13 7 -3 7 -6 8 -6 3 -1 -6 -16 -10 -33 -9 -28 1 -78 -9 -178 -37 -8
-2 -17 -7 -20 -10 -3 -3 -26 -16 -53 -27 -26 -11 -47 -26 -47 -32 0 -6 -4 -9
-9 -6 -5 3 -14 -1 -21 -9 -7 -8 -17 -12 -24 -8 -6 3 -8 3 -4 -1 3 -4 -15 -26
-40 -49 -26 -23 -51 -48 -56 -56 -4 -7 -17 -20 -27 -29 -10 -9 -19 -22 -19
-30 0 -7 -7 -15 -15 -18 -8 -4 -13 -10 -10 -14 3 -5 1 -11 -5 -15 -11 -7 -57
-103 -72 -150 -8 -26 -15 -56 -22 -100 -1 -5 -4 -14 -7 -20 -3 -5 -5 -53 -4
-106 0 -85 3 -100 25 -132 13 -20 27 -34 29 -31 2 2 11 -2 20 -10 24 -21 181
-43 181 -25 0 3 10 6 23 5 25 -2 83 21 110 43 9 8 17 11 17 7 0 -4 14 4 31 18
17 14 34 26 38 26 4 0 26 18 49 40 23 21 42 37 42 35 0 -2 21 19 48 48 72 78
72 79 72 74 0 -2 22 16 48 42 70 67 100 81 172 76 49 -2 67 -9 100 -35 40 -31
120 -138 120 -159 0 -6 5 -11 12 -11 6 0 9 -3 5 -6 -10 -11 83 -125 120 -146
18 -11 33 -24 33 -30 0 -5 5 -6 10 -3 6 3 15 3 22 -1 11 -7 56 -15 88 -16 8
-1 21 -5 28 -11 8 -6 12 -6 12 2 0 8 5 9 18 2 13 -7 23 -6 30 1 8 8 12 8 12 1
0 -10 56 -10 67 0 3 3 15 2 28 -3 13 -5 26 -6 29 -2 4 3 14 7 24 8 9 2 33 6
52 10 19 4 37 8 40 8 3 1 21 9 40 18 19 9 42 18 50 20 8 2 21 9 28 16 8 7 18
9 24 6 6 -4 8 -2 4 4 -3 6 7 16 23 23 16 7 27 17 25 21 -3 4 0 8 5 8 6 0 28
19 50 41 59 63 71 78 71 89 0 5 8 14 18 19 9 6 14 11 9 11 -4 0 -1 10 7 23 22
33 66 154 59 161 -4 3 -2 6 4 6 5 0 10 6 11 13 0 6 4 30 7 52 15 95 16 115 17
210 0 120 -15 281 -28 294 -2 2 1 10 7 18 7 8 7 13 2 13 -12 0 -11 215 0 226
4 4 2 13 -4 21 -6 7 -8 13 -3 13 5 0 10 17 12 37 1 20 5 48 7 62 3 14 8 42 11
61 3 19 9 39 12 45 3 5 7 18 9 30 3 25 11 60 13 60 1 0 4 11 6 25 2 13 10 27
16 31 20 12 1 38 -24 33 -13 -3 -34 -7 -48 -10 -14 -3 -32 -7 -40 -9 -8 -2
-16 -4 -17 -5 -2 -2 -7 -4 -13 -5 -5 -1 -13 -4 -17 -5 -5 -1 -11 -2 -15 -1 -5
0 -8 -3 -8 -8 0 -5 -11 -8 -25 -6 -14 1 -25 -2 -25 -7 0 -5 -4 -6 -10 -3 -5 3
-10 2 -10 -3 0 -5 -15 -13 -32 -17 -18 -4 -35 -8 -38 -9 -3 -1 -11 -5 -17 -9
-7 -5 -21 -10 -30 -12 -10 -2 -42 -13 -72 -24 -30 -11 -57 -19 -59 -16 -3 3
-11 0 -18 -5 -6 -6 -26 -12 -43 -15 -17 -2 -40 -7 -52 -10 -37 -12 -163 -12
-171 -1 -5 8 -8 7 -8 -1 0 -19 -101 25 -128 56 -61 67 -76 90 -112 165 -21 45
-41 95 -43 113 -3 17 -8 36 -11 41 -10 17 -14 153 -6 184 10 31 34 60 44 51 3
-4 6 -2 6 4 0 16 61 2 68 -16 6 -16 52 -57 62 -54 3 0 13 -3 23 -8 12 -7 17
-6 17 3 0 10 2 10 9 -1 7 -11 10 -9 16 8 3 11 10 21 15 21 5 0 7 17 5 37 -3
38 10 67 26 57 5 -3 14 -2 21 2 10 6 68 14 136 17 12 0 22 4 22 7 0 3 10 6 23
7 41 1 117 12 125 17 5 3 29 6 55 7 26 2 47 6 47 10 0 3 14 5 30 4 17 -1 30 2
30 7 0 5 4 7 9 3 6 -3 27 -1 49 3 28 7 46 5 63 -4 13 -7 20 -13 14 -14 -13 0
44 -50 59 -51 43 -4 53 -1 69 18 11 13 17 35 15 50 -2 21 4 30 30 44 18 10 34
19 37 19 3 0 21 6 39 14 45 19 64 57 64 131 -1 115 -81 258 -186 334 -40 28
-167 73 -209 74 -18 0 -33 3 -33 7 0 4 -18 7 -40 6 -22 -1 -40 0 -40 4 0 7
-278 8 -286 1z m467 -163 c5 -7 9 -9 9 -5 0 4 8 0 18 -10 19 -18 36 -52 34
-65 -1 -5 2 -8 6 -8 4 0 8 -10 9 -22 0 -13 1 -41 2 -63 5 -87 -33 -135 -105
-135 -34 0 -87 33 -101 62 -21 45 -33 83 -32 108 1 40 20 120 28 120 5 0 18 8
29 19 25 21 90 21 103 -1z m-681 -30 c0 -4 6 -8 13 -8 17 0 59 -44 50 -53 -3
-4 -1 -7 6 -7 7 0 11 -7 8 -15 -4 -8 -2 -17 2 -20 16 -9 -5 -138 -31 -183 -23
-41 -68 -83 -80 -76 -4 3 -8 1 -8 -5 0 -16 -57 -4 -90 19 -17 12 -29 25 -26
28 3 3 -2 11 -12 19 -9 8 -12 12 -5 9 8 -5 8 2 -2 21 -15 32 -14 128 3 159 6
12 9 24 6 26 -2 3 2 11 11 18 8 7 15 17 15 22 0 16 29 40 40 33 5 -3 10 -2 10
4 0 5 8 11 18 13 31 7 72 5 72 -4z"/>
</g>
</svg>
