<svg aria-hidden="true" style="position: absolute; width: 0; height: 0; overflow: hidden;" version="1.1" xmlns="http://www.w3.org/2000/svg" xmlns:xlink="http://www.w3.org/1999/xlink">
<defs>
<symbol id="icon-account_icon_24px" viewBox="0 0 24 24">
<path fill="#fff" style="fill: var(--color1, #fff)" d="M12 2c-5.52 0-10 4.48-10 10s4.48 10 10 10c5.52 0 10-4.48 10-10s-4.48-10-10-10zM7.070 18.28c0.43-0.9 3.050-1.78 4.93-1.78s4.51 0.88 4.93 1.78c-1.36 1.080-3.070 1.72-4.93 1.72s-3.57-0.64-4.93-1.72zM18.36 16.83c-1.43-1.74-4.9-2.33-6.36-2.33s-4.93 0.59-6.36 2.33c-1.020-1.34-1.64-3.010-1.64-4.83 0-4.41 3.59-8 8-8s8 3.59 8 8c0 1.82-0.62 3.49-1.64 4.83zM12 6c-1.94 0-3.5 1.56-3.5 3.5s1.56 3.5 3.5 3.5c1.94 0 3.5-1.56 3.5-3.5s-1.56-3.5-3.5-3.5zM12 11c-0.83 0-1.5-0.67-1.5-1.5s0.67-1.5 1.5-1.5c0.83 0 1.5 0.67 1.5 1.5s-0.67 1.5-1.5 1.5z"></path>
</symbol>
<symbol id="icon-arrow_downward_24px" viewBox="0 0 16 24">
<path fill="#fff" style="fill: var(--color1, #fff)" d="M16.004 16l-1.41-1.41-5.59 5.58v-20.17h-2v20.17l-5.58-5.59-1.42 1.42 8 8 8-8z"></path>
</symbol>
<symbol id="icon-arrow_right_24px" viewBox="0 0 24 24">
<path fill="#fbd784" style="fill: var(--color2, #fbd784)" d="M16 4l-1.41 1.41 5.58 5.59h-20.17v2h20.17l-5.59 5.58 1.42 1.42 8-8-8-8z"></path>
</symbol>
<symbol id="icon-instagram_24px" viewBox="0 0 24 24">
<path fill="#fff" style="fill: var(--color1, #fff)" d="M7.8 2h8.4c3.203 0 5.8 2.597 5.8 5.8v8.4c0 3.203-2.597 5.8-5.8 5.8h-8.4c-3.203 0-5.8-2.597-5.8-5.8v-8.4c0-3.203 2.597-5.8 5.8-5.8zM7.6 4c-1.988 0-3.6 1.612-3.6 3.6v8.8c0 1.988 1.612 3.6 3.6 3.6h8.8c1.988 0 3.6-1.612 3.6-3.6v-8.8c0-1.988-1.612-3.6-3.6-3.6h-8.8zM17.25 5.5c0.69 0 1.25 0.56 1.25 1.25s-0.56 1.25-1.25 1.25c-0.69 0-1.25-0.56-1.25-1.25s0.56-1.25 1.25-1.25zM12 7c2.761 0 5 2.239 5 5s-2.239 5-5 5c-2.761 0-5-2.239-5-5s2.239-5 5-5zM12 9c-1.657 0-3 1.343-3 3s1.343 3 3 3 3-1.343 3-3c0-1.657-1.343-3-3-3z"></path>
</symbol>
<symbol id="icon-twitter_24px" viewBox="0 0 24 24">
<path fill="#fff" style="fill: var(--color1, #fff)" d="M22.459 5.512c-0.77 0.341-1.597 0.572-2.465 0.676 0.886-0.531 1.566-1.372 1.887-2.374-0.829 0.492-1.748 0.849-2.725 1.041-0.783-0.834-1.898-1.355-3.132-1.355-2.37 0-4.292 1.921-4.292 4.292 0 0.336 0.038 0.664 0.111 0.978-3.567-0.179-6.729-1.888-8.846-4.484-0.369 0.634-0.581 1.371-0.581 2.158 0 1.489 0.758 2.803 1.909 3.572-0.703-0.022-1.365-0.215-1.944-0.537-0 0.018-0 0.036-0 0.054 0 2.079 1.479 3.814 3.443 4.208-0.36 0.098-0.739 0.151-1.131 0.151-0.277 0-0.545-0.027-0.807-0.077 0.546 1.705 2.131 2.946 4.009 2.98-1.469 1.151-3.319 1.837-5.33 1.837-0.346 0-0.688-0.020-1.024-0.060 1.899 1.218 4.155 1.928 6.579 1.928 7.894 0 12.211-6.54 12.211-12.211 0-0.186-0.004-0.371-0.012-0.555 0.839-0.605 1.566-1.361 2.142-2.222z"></path>
</symbol>
</defs>
</svg>
