<svg width="16.000000" height="16.000000" viewBox="0 0 16 16" fill="none" xmlns="http://www.w3.org/2000/svg">
	<desc>
			Created with Pixso.
	</desc>
	<defs>
		<clipPath id="clip3006_10939">
			<rect id="icon" width="16.000000" height="16.000000" fill="white" fill-opacity="0"/>
		</clipPath>
	</defs>
	<rect id="icon" width="16.000000" height="16.000000" fill="#FFFFFF" fill-opacity="0"/>
	<g clip-path="url(#clip3006_10939)">
		<path id="Vector" d="M1 2.5C1 2.10217 1.15796 1.72064 1.43945 1.43933C1.7207 1.15802 2.10229 1 2.5 1L5.5 1C5.89771 1 6.2793 1.15802 6.56055 1.43933C6.84204 1.72064 7 2.10217 7 2.5L7 5.5C7 5.89783 6.84204 6.27936 6.56055 6.56067C6.2793 6.84198 5.89771 7 5.5 7L2.5 7C2.10229 7 1.7207 6.84198 1.43945 6.56067C1.15796 6.27936 1 5.89783 1 5.5L1 2.5ZM9 2.5C9 2.10217 9.15796 1.72064 9.43945 1.43933C9.7207 1.15802 10.1023 1 10.5 1L13.5 1C13.8977 1 14.2793 1.15802 14.5605 1.43933C14.842 1.72064 15 2.10217 15 2.5L15 5.5C15 5.89783 14.842 6.27936 14.5605 6.56067C14.2793 6.84198 13.8977 7 13.5 7L10.5 7C10.1023 7 9.7207 6.84198 9.43945 6.56067C9.15796 6.27936 9 5.89783 9 5.5L9 2.5ZM1 10.5C1 10.1022 1.15796 9.72064 1.43945 9.43933C1.7207 9.15802 2.10229 9 2.5 9L5.5 9C5.89771 9 6.2793 9.15802 6.56055 9.43933C6.84204 9.72064 7 10.1022 7 10.5L7 13.5C7 13.8978 6.84204 14.2794 6.56055 14.5607C6.2793 14.842 5.89771 15 5.5 15L2.5 15C2.10229 15 1.7207 14.842 1.43945 14.5607C1.15796 14.2794 1 13.8978 1 13.5L1 10.5ZM9 10.5C9 10.1022 9.15796 9.72064 9.43945 9.43933C9.7207 9.15802 10.1023 9 10.5 9L13.5 9C13.8977 9 14.2793 9.15802 14.5605 9.43933C14.842 9.72064 15 10.1022 15 10.5L15 13.5C15 13.8978 14.842 14.2794 14.5605 14.5607C14.2793 14.842 13.8977 15 13.5 15L10.5 15C10.1023 15 9.7207 14.842 9.43945 14.5607C9.15796 14.2794 9 13.8978 9 13.5L9 10.5Z" fill="#252B42" fill-opacity="1.000000" fill-rule="nonzero"/>
	</g>
</svg>
