<svg aria-hidden="true" style="position: absolute; width: 0; height: 0; overflow: hidden;" version="1.1" xmlns="http://www.w3.org/2000/svg">
<defs>
<symbol id="basket_16x16" viewBox="0 0 16 16">
<title>basket_16x16</title>
<path fill="#23a6f0" style="fill: var(--color1, #23a6f0)" d="M0.5 1c0-0.133 0.053-0.26 0.146-0.354s0.221-0.146 0.354-0.146h1.5c0.112 0 0.22 0.037 0.308 0.106s0.15 0.165 0.177 0.273l0.405 1.621h11.61c0.073 0 0.146 0.016 0.212 0.048s0.125 0.077 0.172 0.133c0.047 0.057 0.081 0.123 0.099 0.194s0.021 0.145 0.007 0.218l-1.5 8c-0.021 0.114-0.082 0.218-0.172 0.293s-0.203 0.115-0.319 0.116h-9c-0.116-0-0.229-0.041-0.319-0.116s-0.15-0.178-0.172-0.293l-1.499-7.985-0.4-1.607h-1.11c-0.133 0-0.26-0.053-0.354-0.146s-0.146-0.221-0.146-0.354zM3.602 3.5l1.313 7h8.17l1.313-7h-10.796zM5.5 11.5c-0.531 0-1.039 0.211-1.414 0.586s-0.586 0.884-0.586 1.414 0.211 1.039 0.586 1.414c0.375 0.375 0.884 0.586 1.414 0.586s1.039-0.211 1.414-0.586c0.375-0.375 0.586-0.884 0.586-1.414s-0.211-1.039-0.586-1.414c-0.375-0.375-0.884-0.586-1.414-0.586zM12.5 11.5c-0.53 0-1.039 0.211-1.414 0.586s-0.586 0.884-0.586 1.414 0.211 1.039 0.586 1.414c0.375 0.375 0.884 0.586 1.414 0.586s1.039-0.211 1.414-0.586c0.375-0.375 0.586-0.884 0.586-1.414s-0.211-1.039-0.586-1.414c-0.375-0.375-0.884-0.586-1.414-0.586zM5.5 12.5c0.265 0 0.52 0.105 0.707 0.293s0.293 0.442 0.293 0.707-0.105 0.52-0.293 0.707c-0.188 0.188-0.442 0.293-0.707 0.293s-0.52-0.105-0.707-0.293c-0.188-0.188-0.293-0.442-0.293-0.707s0.105-0.52 0.293-0.707c0.188-0.188 0.442-0.293 0.707-0.293zM12.5 12.5c0.265 0 0.52 0.105 0.707 0.293s0.293 0.442 0.293 0.707-0.105 0.52-0.293 0.707c-0.188 0.188-0.442 0.293-0.707 0.293s-0.52-0.105-0.707-0.293c-0.188-0.188-0.293-0.442-0.293-0.707s0.105-0.52 0.293-0.707c0.188-0.188 0.442-0.293 0.707-0.293z"/>
</symbol>
<symbol id="heart_16x16" viewBox="0 0 16 16">
<title>heart_16x16</title>
<path fill="#23a6f0" style="fill: var(--color1, #23a6f0)" d="M8 3.248l-0.717-0.737c-1.683-1.73-4.769-1.133-5.883 1.042-0.523 1.023-0.641 2.5 0.314 4.385 0.92 1.815 2.834 3.989 6.286 6.357 3.452-2.368 5.365-4.542 6.286-6.357 0.955-1.886 0.838-3.362 0.314-4.385-1.114-2.175-4.2-2.773-5.883-1.043l-0.717 0.738zM8 15.5c-15.333-10.132-4.721-18.040-0.176-13.857 0.060 0.055 0.119 0.112 0.176 0.171 0.056-0.059 0.115-0.116 0.176-0.17 4.544-4.186 15.158 3.723-0.176 13.856z"/>
</symbol>
<symbol id="human_16x16" viewBox="0 0 16 16">
<title>human_16x16</title>
<path fill="#23a6f0" style="fill: var(--color1, #23a6f0)" d="M8 8c1.061 0 2.078-0.421 2.828-1.172s1.172-1.768 1.172-2.828-0.422-2.078-1.172-2.828c-0.75-0.75-1.768-1.172-2.828-1.172s-2.078 0.421-2.828 1.172c-0.75 0.75-1.172 1.768-1.172 2.828s0.422 2.078 1.172 2.828c0.75 0.75 1.768 1.172 2.828 1.172zM10.667 4c0 0.707-0.281 1.386-0.781 1.886s-1.178 0.781-1.886 0.781-1.385-0.281-1.886-0.781c-0.5-0.5-0.781-1.178-0.781-1.886s0.281-1.386 0.781-1.886c0.5-0.5 1.178-0.781 1.886-0.781s1.385 0.281 1.886 0.781c0.5 0.5 0.781 1.178 0.781 1.886zM16 14.667c0 1.333-1.333 1.333-1.333 1.333h-13.333c0 0-1.333 0-1.333-1.333s1.333-5.333 8-5.333c6.667 0 8 4 8 5.333zM14.667 14.661c-0.001-0.328-0.205-1.315-1.109-2.219-0.869-0.869-2.505-1.776-5.557-1.776-3.053 0-4.688 0.907-5.557 1.776-0.904 0.904-1.107 1.891-1.109 2.219h13.333z"/>
</symbol>
<symbol id="lens_16x16" viewBox="0 0 16 16">
<title>lens_16x16</title>
<path fill="#23a6f0" style="fill: var(--color1, #23a6f0)" d="M11.743 10.343c0.968-1.321 1.402-2.959 1.214-4.587s-0.983-3.124-2.227-4.19c-1.244-1.066-2.844-1.623-4.481-1.56s-3.19 0.742-4.348 1.9c-1.158 1.159-1.835 2.712-1.897 4.349s0.497 3.237 1.564 4.48c1.067 1.243 2.564 2.037 4.192 2.223s3.265-0.248 4.586-1.218h-0.001c0.030 0.040 0.062 0.078 0.098 0.115l3.85 3.85c0.188 0.188 0.442 0.293 0.707 0.293s0.52-0.105 0.707-0.293c0.188-0.188 0.293-0.442 0.293-0.707s-0.105-0.52-0.293-0.707l-3.85-3.85c-0.036-0.036-0.074-0.070-0.115-0.1v0.001zM12.001 6.499c0 0.722-0.142 1.437-0.419 2.105s-0.682 1.274-1.192 1.784c-0.511 0.511-1.117 0.916-1.784 1.192s-1.383 0.419-2.105 0.419c-0.722 0-1.437-0.142-2.105-0.419s-1.274-0.681-1.784-1.192c-0.511-0.511-0.916-1.117-1.192-1.784s-0.419-1.382-0.419-2.105c0-1.459 0.579-2.858 1.611-3.889s2.43-1.611 3.889-1.611c1.458 0 2.858 0.579 3.889 1.611s1.611 2.43 1.611 3.889z"/>
</symbol>
<symbol id="facebook_16x16" viewBox="0 0 16 16">
<title>facebook_16x16</title>
<path fill="#fff" style="fill: var(--color2, #fff)" d="M16 8.049c0-4.445-3.582-8.049-7.999-8.049-4.419 0.001-8.001 3.604-8.001 8.050 0 4.016 2.926 7.346 6.749 7.95v-5.624h-2.030v-2.326h2.032v-1.775c0-2.017 1.195-3.131 3.022-3.131 0.876 0 1.791 0.157 1.791 0.157v1.98h-1.009c-0.993 0-1.303 0.621-1.303 1.258v1.51h2.218l-0.354 2.326h-1.865v5.624c3.823-0.604 6.749-3.934 6.749-7.95z"/>
</symbol>
<symbol id="instagram_16x16" viewBox="0 0 16 16">
<title>instagram_16x16</title>
<path fill="#fff" style="fill: var(--color2, #fff)" d="M8 0c-2.171 0-2.444 0.010-3.297 0.048-0.853 0.040-1.434 0.174-1.943 0.372-0.534 0.201-1.018 0.516-1.417 0.923-0.407 0.4-0.722 0.883-0.923 1.417-0.198 0.508-0.333 1.090-0.372 1.94-0.038 0.855-0.048 1.127-0.048 3.301 0 2.172 0.010 2.444 0.048 3.297 0.040 0.852 0.174 1.433 0.372 1.942 0.205 0.526 0.478 0.972 0.923 1.417s0.89 0.719 1.416 0.923c0.51 0.198 1.090 0.333 1.942 0.372 0.854 0.038 1.126 0.048 3.299 0.048s2.444-0.010 3.298-0.048c0.851-0.040 1.434-0.174 1.943-0.372 0.534-0.201 1.017-0.516 1.416-0.923 0.445-0.445 0.718-0.891 0.923-1.417 0.197-0.509 0.332-1.090 0.372-1.942 0.038-0.853 0.048-1.125 0.048-3.298s-0.010-2.445-0.048-3.299c-0.040-0.851-0.175-1.433-0.372-1.941-0.201-0.534-0.516-1.017-0.923-1.417-0.399-0.407-0.883-0.722-1.417-0.923-0.51-0.198-1.092-0.333-1.943-0.372-0.854-0.038-1.125-0.048-3.299-0.048h0.002zM7.283 1.442h0.718c2.136 0 2.389 0.007 3.232 0.046 0.78 0.035 1.204 0.166 1.486 0.275 0.373 0.145 0.64 0.319 0.92 0.599s0.453 0.546 0.598 0.92c0.11 0.281 0.24 0.705 0.275 1.485 0.039 0.843 0.047 1.096 0.047 3.231s-0.008 2.389-0.047 3.232c-0.035 0.78-0.166 1.203-0.275 1.485-0.129 0.347-0.333 0.662-0.599 0.919-0.28 0.28-0.546 0.453-0.92 0.598-0.28 0.11-0.704 0.24-1.485 0.276-0.843 0.038-1.096 0.047-3.232 0.047s-2.39-0.009-3.233-0.047c-0.78-0.036-1.203-0.166-1.485-0.276-0.347-0.128-0.662-0.332-0.92-0.598-0.266-0.258-0.471-0.572-0.6-0.92-0.109-0.281-0.24-0.705-0.275-1.485-0.038-0.843-0.046-1.096-0.046-3.233 0-2.136 0.008-2.388 0.046-3.231 0.036-0.78 0.166-1.204 0.276-1.486 0.145-0.373 0.319-0.64 0.599-0.92s0.546-0.453 0.92-0.598c0.282-0.11 0.705-0.24 1.485-0.276 0.738-0.034 1.024-0.044 2.515-0.045v0.002zM12.271 2.77c-0.126 0-0.251 0.025-0.367 0.073s-0.222 0.119-0.311 0.208c-0.089 0.089-0.16 0.195-0.208 0.312s-0.073 0.241-0.073 0.367 0.025 0.251 0.073 0.367c0.048 0.116 0.119 0.222 0.208 0.311s0.195 0.16 0.311 0.208c0.116 0.048 0.241 0.073 0.367 0.073 0.255 0 0.499-0.101 0.679-0.281s0.281-0.424 0.281-0.679-0.101-0.499-0.281-0.679c-0.18-0.18-0.424-0.281-0.679-0.281zM8.001 3.892c-0.545-0.008-1.086 0.092-1.592 0.294s-0.966 0.504-1.355 0.886c-0.388 0.382-0.697 0.838-0.907 1.341s-0.319 1.042-0.319 1.587 0.108 1.085 0.319 1.587c0.211 0.503 0.519 0.958 0.907 1.341s0.849 0.684 1.355 0.886c0.506 0.203 1.047 0.303 1.592 0.294 1.079-0.017 2.107-0.457 2.864-1.226s1.181-1.804 1.181-2.883c0-1.079-0.424-2.114-1.181-2.883s-1.785-1.209-2.864-1.226zM8.001 5.333c0.707 0 1.386 0.281 1.886 0.781s0.781 1.179 0.781 1.886-0.281 1.386-0.781 1.886c-0.5 0.5-1.179 0.781-1.886 0.781s-1.386-0.281-1.886-0.781c-0.5-0.5-0.781-1.179-0.781-1.886s0.281-1.386 0.781-1.886c0.5-0.5 1.178-0.781 1.886-0.781z"/>
</symbol>
<symbol id="mail_16x16" viewBox="0 0 16 16">
<title>mail_16x16</title>
<path fill="#fff" style="fill: var(--color2, #fff)" d="M0 4c0-0.53 0.211-1.039 0.586-1.414s0.884-0.586 1.414-0.586h12c0.53 0 1.039 0.211 1.414 0.586s0.586 0.884 0.586 1.414v8c0 0.53-0.211 1.039-0.586 1.414s-0.884 0.586-1.414 0.586h-12c-0.53 0-1.039-0.211-1.414-0.586s-0.586-0.884-0.586-1.414v-8zM2 3c-0.265 0-0.52 0.105-0.707 0.293s-0.293 0.442-0.293 0.707v0.217l7 4.2 7-4.2v-0.217c0-0.265-0.105-0.52-0.293-0.707s-0.442-0.293-0.707-0.293h-12zM15 5.383l-4.758 2.855 4.758 2.876v-5.731zM14.966 12.261l-5.695-3.441-1.271 0.763-1.272-0.763-5.694 3.44c0.057 0.212 0.183 0.4 0.357 0.534s0.389 0.206 0.609 0.206h12c0.22 0 0.434-0.072 0.608-0.206s0.3-0.321 0.358-0.533zM1 11.114l4.758-2.876-4.758-2.855v5.731z"/>
</symbol>
<symbol id="phone_16x16" viewBox="0 0 16 16">
<title>phone_16x16</title>
<path fill="#fff" style="fill: var(--color2, #fff)" d="M3.654 1.328c-0.059-0.076-0.134-0.138-0.219-0.183s-0.179-0.071-0.275-0.077c-0.096-0.006-0.192 0.009-0.282 0.043s-0.172 0.087-0.24 0.155l-1.034 1.035c-0.483 0.484-0.661 1.169-0.45 1.77 0.876 2.487 2.3 4.746 4.168 6.608 1.862 1.868 4.12 3.292 6.608 4.168 0.601 0.211 1.286 0.033 1.77-0.45l1.034-1.034c0.068-0.068 0.121-0.15 0.155-0.24s0.049-0.186 0.043-0.282c-0.006-0.096-0.032-0.19-0.077-0.275s-0.107-0.159-0.183-0.219l-2.307-1.794c-0.081-0.063-0.176-0.107-0.276-0.128s-0.204-0.019-0.304 0.006l-2.19 0.547c-0.292 0.073-0.598 0.069-0.889-0.011s-0.555-0.235-0.768-0.448l-2.456-2.457c-0.213-0.213-0.368-0.478-0.448-0.768s-0.085-0.597-0.012-0.889l0.548-2.19c0.025-0.1 0.027-0.204 0.006-0.304s-0.065-0.195-0.128-0.276l-1.794-2.307zM1.885 0.511c0.175-0.175 0.385-0.311 0.617-0.398s0.479-0.125 0.726-0.11c0.247 0.015 0.488 0.083 0.707 0.199s0.411 0.277 0.562 0.472l1.794 2.306c0.329 0.423 0.445 0.974 0.315 1.494l-0.547 2.19c-0.028 0.113-0.027 0.232 0.004 0.345s0.091 0.215 0.174 0.298l2.457 2.457c0.083 0.083 0.186 0.143 0.299 0.174s0.232 0.033 0.345 0.004l2.189-0.547c0.257-0.064 0.524-0.069 0.783-0.015s0.502 0.167 0.711 0.33l2.306 1.794c0.829 0.645 0.905 1.87 0.163 2.611l-1.034 1.034c-0.74 0.74-1.846 1.065-2.877 0.702-2.639-0.928-5.035-2.439-7.010-4.42-1.981-1.975-3.491-4.37-4.42-7.009-0.362-1.030-0.037-2.137 0.703-2.877l1.033-1.034z"/>
</symbol>
<symbol id="twitter_16x16" viewBox="0 0 16 16">
<title>twitter_16x16</title>
<path fill="#fff" style="fill: var(--color2, #fff)" d="M5.026 14.5c6.038 0 9.341-5.003 9.341-9.334 0-0.14 0-0.282-0.006-0.422 0.643-0.466 1.198-1.042 1.639-1.702-0.601 0.265-1.237 0.439-1.889 0.518 0.687-0.41 1.201-1.056 1.447-1.817-0.645 0.382-1.351 0.65-2.087 0.793-0.495-0.527-1.15-0.876-1.863-0.993s-1.445 0.004-2.083 0.345c-0.637 0.341-1.145 0.883-1.443 1.541s-0.371 1.397-0.208 2.101c-1.305-0.065-2.582-0.404-3.748-0.995s-2.194-1.42-3.019-2.434c-0.418 0.723-0.546 1.578-0.357 2.392s0.681 1.525 1.375 1.99c-0.521-0.018-1.030-0.157-1.486-0.408v0.045c0.001 0.757 0.263 1.491 0.743 2.078s1.147 0.989 1.889 1.14c-0.282 0.078-0.573 0.116-0.865 0.115-0.206 0.001-0.412-0.019-0.614-0.057 0.21 0.652 0.618 1.222 1.168 1.63s1.214 0.634 1.899 0.646c-1.164 0.914-2.601 1.409-4.080 1.407-0.261 0.001-0.521-0.014-0.78-0.045 1.501 0.957 3.245 1.466 5.026 1.465z"/>
</symbol>
<symbol id="youtube_16x16" viewBox="0 0 16 16">
<title>youtube_16x16</title>
<path fill="#fff" style="fill: var(--color2, #fff)" d="M8.052 2.38h0.089c0.822 0.003 4.987 0.033 6.111 0.335 0.34 0.092 0.649 0.272 0.897 0.521s0.427 0.559 0.518 0.899c0.101 0.38 0.172 0.883 0.22 1.402l0.010 0.104 0.022 0.26 0.008 0.104c0.065 0.914 0.073 1.77 0.074 1.957v0.075c-0.001 0.194-0.010 1.108-0.082 2.060l-0.008 0.105-0.009 0.104c-0.050 0.572-0.124 1.14-0.235 1.558-0.091 0.34-0.269 0.65-0.518 0.899s-0.558 0.429-0.898 0.521c-1.16 0.312-5.569 0.334-6.18 0.335h-0.142c-0.309 0-1.587-0.006-2.927-0.052l-0.17-0.006-0.087-0.004-0.342-0.014c-1.11-0.049-2.167-0.128-2.654-0.26-0.34-0.092-0.649-0.271-0.897-0.52s-0.427-0.559-0.518-0.899c-0.111-0.417-0.185-0.986-0.235-1.558l-0.008-0.105-0.008-0.104c-0.049-0.678-0.077-1.357-0.082-2.036v-0.123c0.002-0.215 0.010-0.958 0.064-1.778l0.007-0.103 0.003-0.052 0.008-0.104 0.022-0.26 0.010-0.104c0.048-0.519 0.119-1.023 0.22-1.402 0.091-0.34 0.269-0.65 0.518-0.899s0.558-0.429 0.898-0.521c0.487-0.13 1.544-0.21 2.654-0.26l0.17-0.007 0.258-0.009 0.171-0.007c0.952-0.031 1.904-0.048 2.856-0.051h0.193v-0.001zM6.4 5.59v4.818l4.157-2.408-4.157-2.41z"/>
</symbol>
</defs>
</svg>
