<svg aria-hidden="true" style="position: absolute; width: 0; height: 0; overflow: hidden;" version="1.1" xmlns="http://www.w3.org/2000/svg" xmlns:xlink="http://www.w3.org/1999/xlink">
<defs>
<symbol id="icon-logo_apple-store" viewBox="0 0 26 32">
<path fill="#fff" d="M21.715 16.998c0.045 4.832 4.239 6.44 4.286 6.461-0.035 0.113-0.67 2.292-2.21 4.542-1.331 1.945-2.712 3.883-4.888 3.923-2.138 0.039-2.826-1.268-5.27-1.268s-3.208 1.228-5.232 1.307c-2.1 0.079-3.7-2.103-5.042-4.042-2.742-3.964-4.838-11.202-2.024-16.088 1.398-2.426 3.896-3.963 6.607-4.002 2.062-0.039 4.009 1.388 5.27 1.388s3.626-1.716 6.113-1.464c1.041 0.043 3.964 0.421 5.84 3.167-0.151 0.094-3.487 2.036-3.451 6.076zM17.696 5.133c1.115-1.35 1.866-3.229 1.661-5.098-1.607 0.065-3.551 1.071-4.704 2.42-1.033 1.195-1.938 3.107-1.694 4.939 1.792 0.139 3.622-0.91 4.737-2.261z"></path>
</symbol>
<symbol id="icon-logo_google-play" viewBox="0 0 32 32">
<path fill="#ea4335" style="fill: var(--color1, #ea4335)" d="M14.972 15.284l-13.461 14.086c0.443 1.484 1.849 2.63 3.489 2.63 0.703 0 1.302-0.182 1.849-0.521v0l15.206-8.644-7.082-7.551z"></path>
<path fill="#fbbc04" style="fill: var(--color2, #fbbc04)" d="M28.589 12.836v0l-6.561-3.749-7.343 6.457 7.421 7.264 6.561-3.671c1.146-0.625 1.927-1.849 1.927-3.151-0.078-1.328-0.859-2.552-2.005-3.151z"></path>
<path fill="#4285f4" style="fill: var(--color3, #4285f4)" d="M1.484 2.604c-0.078 0.26-0.078 0.625-0.078 0.963v24.918c0 0.338 0 0.625 0.078 0.963l13.982-13.722-13.982-13.123z"></path>
<path fill="#34a853" style="fill: var(--color4, #34a853)" d="M15.050 15.987l7.004-6.9-15.128-8.566c-0.521-0.339-1.224-0.521-1.927-0.521-1.666 0-3.151 1.146-3.489 2.63v0l13.539 13.357z"></path>
</symbol>
</defs>
</svg>
