<!-- Generated by IcoMoon.io -->
<svg version="1.1" xmlns="http://www.w3.org/2000/svg" width="1117" height="1024" viewBox="0 0 1117 1024">
<title>card-settings</title>
<g id="icomoon-ignore">
</g>
<path fill="#fff1da" d="M227.432 427.217c0 99.106 80.341 179.446 179.446 179.446h269.169c27.53 0 49.847-22.317 49.847-49.847v-338.955c0-55.060-44.634-99.693-99.693-99.693h-348.923c-27.53 0-49.847 22.317-49.847 49.847v259.2z"></path>
<path fill="#d5d6db" d="M711.776 566.202c-13.542 3.033-26.732 8.651-38.749 16.501-31.311 19.951-49.529 48.431-40.686 63.606s41.394 11.293 72.703-8.658c12.18-7.573 23-17.249 31.795-28.435 4.081-5.405 4.813-12.138 1.87-17.173l-11.486-19.713c-2.924-5.050-8.984-7.451-15.447-6.128z"></path>
<path fill="#d5d6db" d="M633.148 297.102c-9.82 2.201-19.384 6.276-28.101 11.969-22.698 14.464-35.915 35.113-29.509 46.107s30.019 8.177 52.715-6.285c8.832-5.493 16.677-12.515 23.054-20.627 2.957-3.918 3.486-8.795 1.352-12.444l-8.317-14.275c-2.117-3.661-6.508-5.405-11.195-4.447z"></path>
<path fill="#029bc5" d="M505.4 308.371c-2.186-0.244-4.517 0.339-6.538 1.63l-53.316 33.977c-4.46 2.834-6.245 8.29-3.982 12.189 0.517 0.894 1.225 1.657 2.086 2.244l131.411 90.57 177.789-113.298-247.448-27.314z"></path>
<path fill="#e1e6e9" d="M1067.437 295.564l-483.829 304.582-286.244 113.908-145.981 29.011-16.060-27.285 806.462-497.93c24.036-14.903 50.814-24.051 77.61-26.515 11.744-1.017 23.338-0.625 34.513 1.157 9.909 1.502 19.311 4.4 27.914 8.609 9.61 4.768 27.905 5.318 33.825 14.816 0.019-0.015 13.997 43.595-48.211 79.648z"></path>
<path fill="#029bc5" d="M590.022 559.845l-209.307 333.674c-2.615 4.685-1.063 9.93 3.462 11.714 2.777 1.096 6.176 0.669 9.032-1.147l53.275-33.795c10.246-6.51 19.32-14.765 26.659-24.275l405.916-477.214-289.036 191.043z"></path>
<path fill="#029bc5" d="M61.855 548.704c-3.492-1.193-7.648-0.574-11.155 1.658l-44.040 28.047c-6 3.819-8.391 11.161-5.342 16.402 0.582 0.996 1.336 1.873 2.24 2.595l123.388 98.819 129.73-81.032-194.821-66.492z"></path>
<path fill="#029bc5" d="M168.303 714.043l-66.411 93.003c-0.975 1.336-0.745 3.021 0.511 3.748 0.906 0.528 2.141 0.429 3.147-0.24l41.155-26.080c0.319-0.21 0.609-0.459 0.849-0.748l97.037-117.985-76.288 48.299z"></path>
<path fill="#029bc5" d="M1045.965 196.502c-11.504-1.849-23.447-2.243-35.54-1.18-11.774 16.461-19.29 34.95-21.822 53.626-0.18 3.751 2.841 6.451 6.759 6.032 1.216-0.132 2.432-0.559 3.519-1.246l75.846-48.293c-8.873-4.372-18.552-7.381-28.761-8.939z"></path>
<path fill="#d5d6db" d="M880.684 285.31l49.517-31.274 46.128 78.448-49.517 31.274-46.128-78.448z"></path>
<path fill="#3a556a" d="M849.53 316.335c-5.972 3.78-8.354 11.045-5.324 16.225l4.904 8.394c3.229 5.050 10.597 5.937 16.459 1.982 5.583-3.766 7.835-10.612 5.144-15.666l-4.904-8.393c-3.030-5.177-10.318-6.316-16.279-2.543z"></path>
<path fill="#3a556a" d="M805.018 343.975c-5.961 3.78-8.354 11.045-5.324 16.225l4.915 8.394c3.22 5.050 10.597 5.937 16.459 1.982 5.583-3.766 7.826-10.612 5.134-15.666l-4.904-8.394c-3.030-5.176-10.318-6.313-16.279-2.541z"></path>
<path fill="#3a556a" d="M760.495 371.622c-5.961 3.786-8.335 11.042-5.303 16.218l4.904 8.394c3.229 5.050 10.597 5.937 16.459 1.982 5.583-3.766 7.835-10.612 5.144-15.666l-4.904-8.394c-3.030-5.182-10.329-6.315-16.3-2.534z"></path>
<path fill="#3a556a" d="M715.992 399.261c-5.961 3.784-8.338 11.042-5.31 16.218l4.909 8.394c3.228 5.050 10.598 5.937 16.464 1.982 5.58-3.766 7.828-10.612 5.138-15.666l-4.907-8.393c-3.032-5.18-10.326-6.315-16.291-2.534z"></path>
<path fill="#3a556a" d="M671.49 426.902c-5.964 3.787-8.342 11.047-5.313 16.225l4.91 8.397c3.027 5.177 10.318 6.31 16.282 2.532s8.348-11.038 5.319-16.215l-4.91-8.397c-3.020-5.182-10.308-6.322-16.276-2.552-0.004 0.004-0.007 0.004-0.013 0.007z"></path>
<path fill="#3a556a" d="M626.984 454.543c-5.964 3.786-8.342 11.045-5.313 16.225l4.91 8.397c3.027 5.176 10.317 6.31 16.282 2.532s8.348-11.038 5.319-16.215l-4.91-8.397c-3.020-5.182-10.308-6.322-16.276-2.552-0.004 0.003-0.010 0.006-0.012 0.007z"></path>
<path fill="#3a556a" d="M582.475 482.182c-5.964 3.786-8.342 11.045-5.313 16.225l4.91 8.397c3.035 5.173 10.329 6.294 16.288 2.511 5.949-3.777 8.326-11.021 5.312-16.192l-4.91-8.397c-3.026-5.18-10.317-6.319-16.285-2.544z"></path>
<path fill="#3a556a" d="M537.966 509.822c-5.964 3.786-8.342 11.047-5.313 16.225l4.91 8.397c3.035 5.173 10.329 6.294 16.288 2.511 5.949-3.777 8.326-11.021 5.312-16.192l-4.91-8.397c-3.026-5.182-10.317-6.321-16.285-2.546z"></path>
<path fill="#3a556a" d="M493.46 537.461c-5.964 3.786-8.342 11.045-5.313 16.225l4.91 8.397c3.035 5.173 10.329 6.294 16.288 2.511 5.949-3.777 8.326-11.021 5.312-16.191l-4.91-8.397c-3.029-5.179-10.318-6.318-16.285-2.546z"></path>
<path fill="#3a556a" d="M448.938 565.108c-5.964 3.778-8.347 11.038-5.318 16.215l0.006 0.010 4.91 8.397c3.035 5.171 10.329 6.294 16.287 2.51 5.949-3.777 8.326-11.021 5.312-16.191l-4.91-8.397c-3.026-5.18-10.317-6.319-16.287-2.544z"></path>
<path fill="#3a556a" d="M404.444 592.739c-5.966 3.778-8.348 11.038-5.319 16.215l0.006 0.010 4.91 8.397c3.035 5.173 10.329 6.294 16.288 2.511 5.949-3.777 8.326-11.021 5.312-16.191l-4.91-8.397c-3.029-5.179-10.318-6.318-16.285-2.546z"></path>
</svg>
