<svg aria-hidden="true" style="position: absolute; width: 0; height: 0; overflow: hidden;" version="1.1" xmlns="http://www.w3.org/2000/svg" xmlns:xlink="http://www.w3.org/1999/xlink">
<defs>
<symbol id="icon-sn-fb-logo" viewBox="0 0 32 32">
<path d="M22.578 5.66c-0.807-0.255-1.735-0.426-2.583-0.426-1.049 0-3.309 0.723-3.309 2.128v3.362h5.367v5.659h-5.367v15.617h-5.407v-15.617h-2.663v-5.659h2.663v-2.851c0-4.298 1.856-7.872 6.335-7.872 1.533 0 4.277 0.085 5.77 0.638l-0.807 5.021z"></path>
</symbol>
<symbol id="icon-sn-insta-logo" viewBox="0 0 32 32">
<path d="M27.312 0h-22.625c-2.584 0-4.688 2.103-4.688 4.688v22.625c0 2.585 2.103 4.688 4.688 4.688h22.625c2.585 0 4.688-2.103 4.688-4.688v-22.625c0-2.584-2.103-4.688-4.688-4.688zM30.125 27.312c0 1.551-1.262 2.813-2.813 2.813h-22.625c-1.551 0-2.813-1.262-2.813-2.813v-22.625c0-1.551 1.262-2.813 2.813-2.813h22.625c1.551 0 2.813 1.262 2.813 2.813v22.625z"></path>
<path d="M26.312 3.813c-1.034 0-1.875 0.841-1.875 1.875s0.841 1.875 1.875 1.875c1.034 0 1.875-0.841 1.875-1.875s-0.841-1.875-1.875-1.875z"></path>
<path d="M16 7.563c-4.652 0-8.438 3.785-8.438 8.438s3.785 8.438 8.438 8.438c4.653 0 8.438-3.785 8.438-8.438s-3.785-8.438-8.438-8.438zM16 22.562c-3.619 0-6.563-2.944-6.563-6.562s2.944-6.563 6.563-6.563c3.619 0 6.562 2.944 6.562 6.563s-2.944 6.562-6.562 6.562z"></path>
</symbol>
<symbol id="icon-sn-twitter-logo" viewBox="0 0 32 32">
<path d="M32 6.078c-1.19 0.522-2.458 0.868-3.78 1.036 1.36-0.812 2.398-2.088 2.886-3.626-1.268 0.756-2.668 1.29-4.16 1.588-1.204-1.282-2.92-2.076-4.792-2.076-3.632 0-6.556 2.948-6.556 6.562 0 0.52 0.044 1.020 0.152 1.496-5.454-0.266-10.28-2.88-13.522-6.862-0.566 0.982-0.898 2.106-0.898 3.316 0 2.272 1.17 4.286 2.914 5.452-1.054-0.020-2.088-0.326-2.964-0.808 0 0.020 0 0.046 0 0.072 0 3.188 2.274 5.836 5.256 6.446-0.534 0.146-1.116 0.216-1.72 0.216-0.42 0-0.844-0.024-1.242-0.112 0.85 2.598 3.262 4.508 6.13 4.57-2.232 1.746-5.066 2.798-8.134 2.798-0.538 0-1.054-0.024-1.57-0.090 2.906 1.874 6.35 2.944 10.064 2.944 12.072 0 18.672-10 18.672-18.668 0-0.29-0.010-0.57-0.024-0.848 1.302-0.924 2.396-2.078 3.288-3.406z"></path>
</symbol>
</defs>
</svg>
