<svg aria-hidden="true" style="position: absolute; width: 0; height: 0; overflow: hidden;" version="1.1" xmlns="http://www.w3.org/2000/svg">
<defs>
<symbol id="facebook_24x24" viewBox="0 0 16 16">
<path fill="#23a6f0" style="fill: var(--color1, #23a6f0)" d="M16 8.049c0-4.445-3.582-8.049-7.999-8.049-4.42 0.001-8.001 3.603-8.001 8.050 0 4.016 2.926 7.346 6.749 7.95v-5.624h-2.030v-2.326h2.032v-1.775c0-2.017 1.195-3.131 3.022-3.131 0.876 0 1.791 0.157 1.791 0.157v1.98h-1.009c-0.993 0-1.303 0.621-1.303 1.258v1.51h2.218l-0.354 2.326h-1.865v5.624c3.824-0.604 6.749-3.933 6.749-7.95z"/>
</symbol>
<symbol id="instagram_24x24" viewBox="0 0 16 16">
<path fill="#23a6f0" style="fill: var(--color1, #23a6f0)" d="M8 0c-2.171 0-2.444 0.010-3.297 0.048-0.853 0.040-1.434 0.174-1.943 0.372-0.534 0.201-1.017 0.516-1.417 0.923-0.407 0.4-0.722 0.883-0.923 1.417-0.198 0.508-0.333 1.090-0.372 1.94-0.038 0.855-0.048 1.127-0.048 3.301 0 2.172 0.010 2.444 0.048 3.297 0.040 0.852 0.174 1.433 0.372 1.942 0.205 0.526 0.478 0.972 0.923 1.417 0.444 0.445 0.89 0.719 1.416 0.923 0.51 0.198 1.090 0.333 1.942 0.372 0.854 0.038 1.126 0.048 3.299 0.048s2.444-0.010 3.298-0.048c0.851-0.040 1.434-0.174 1.943-0.372 0.534-0.201 1.017-0.516 1.416-0.923 0.445-0.445 0.718-0.891 0.923-1.417 0.197-0.509 0.332-1.090 0.372-1.942 0.038-0.853 0.048-1.125 0.048-3.298s-0.010-2.445-0.048-3.299c-0.040-0.851-0.175-1.433-0.372-1.941-0.201-0.534-0.516-1.017-0.923-1.417-0.399-0.407-0.883-0.722-1.417-0.923-0.51-0.198-1.092-0.333-1.943-0.372-0.854-0.038-1.125-0.048-3.299-0.048h0.002zM7.283 1.442h0.718c2.136 0 2.389 0.007 3.232 0.046 0.78 0.035 1.204 0.166 1.486 0.275 0.373 0.145 0.64 0.319 0.92 0.599s0.453 0.546 0.598 0.92c0.11 0.281 0.24 0.705 0.275 1.485 0.039 0.843 0.047 1.096 0.047 3.231s-0.008 2.389-0.047 3.232c-0.035 0.78-0.166 1.203-0.275 1.485-0.128 0.347-0.333 0.661-0.599 0.919-0.28 0.28-0.546 0.453-0.92 0.598-0.28 0.11-0.704 0.24-1.485 0.276-0.843 0.038-1.096 0.047-3.232 0.047s-2.39-0.009-3.233-0.047c-0.78-0.036-1.203-0.166-1.485-0.276-0.347-0.128-0.662-0.332-0.92-0.598-0.266-0.258-0.471-0.572-0.6-0.92-0.109-0.281-0.24-0.705-0.275-1.485-0.038-0.843-0.046-1.096-0.046-3.233 0-2.136 0.008-2.388 0.046-3.231 0.036-0.78 0.166-1.204 0.276-1.486 0.145-0.373 0.319-0.64 0.599-0.92s0.546-0.453 0.92-0.598c0.282-0.11 0.705-0.24 1.485-0.276 0.738-0.034 1.024-0.044 2.515-0.045v0.002zM12.271 2.77c-0.126 0-0.251 0.025-0.367 0.073s-0.222 0.119-0.311 0.208c-0.089 0.089-0.16 0.195-0.208 0.312s-0.073 0.241-0.073 0.367c0 0.126 0.025 0.251 0.073 0.367s0.119 0.222 0.208 0.311c0.089 0.089 0.195 0.16 0.311 0.208s0.241 0.073 0.367 0.073c0.255 0 0.499-0.101 0.679-0.281s0.281-0.424 0.281-0.679c0-0.255-0.101-0.499-0.281-0.679s-0.424-0.281-0.679-0.281zM8.001 3.892c-0.545-0.008-1.086 0.092-1.592 0.294s-0.966 0.504-1.355 0.886-0.697 0.838-0.907 1.341c-0.211 0.503-0.319 1.042-0.319 1.587s0.108 1.085 0.319 1.587c0.211 0.503 0.519 0.959 0.907 1.341s0.849 0.684 1.355 0.886c0.506 0.203 1.047 0.303 1.592 0.294 1.078-0.017 2.107-0.457 2.864-1.226s1.181-1.804 1.181-2.883-0.424-2.114-1.181-2.883c-0.757-0.769-1.786-1.209-2.864-1.226zM8.001 5.333c0.707 0 1.386 0.281 1.886 0.781s0.781 1.179 0.781 1.886-0.281 1.386-0.781 1.886c-0.5 0.5-1.179 0.781-1.886 0.781s-1.386-0.281-1.886-0.781c-0.5-0.5-0.781-1.179-0.781-1.886s0.281-1.386 0.781-1.886c0.5-0.5 1.178-0.781 1.886-0.781z"/>
</symbol>
<symbol id="twitter_24x24" viewBox="0 0 19 16">
<path fill="#23a6f0" style="fill: var(--color1, #23a6f0)" d="M6.101 15.945c7.329 0 11.339-6.115 11.339-11.409 0-0.171 0-0.345-0.007-0.516 0.781-0.569 1.454-1.273 1.99-2.080-0.729 0.324-1.502 0.537-2.293 0.633 0.833-0.502 1.458-1.291 1.757-2.221-0.783 0.467-1.64 0.795-2.533 0.969-0.601-0.644-1.396-1.071-2.261-1.214s-1.755 0.005-2.528 0.422c-0.774 0.417-1.389 1.079-1.752 1.884s-0.451 1.707-0.252 2.568c-1.584-0.080-3.134-0.494-4.549-1.217s-2.664-1.735-3.665-2.975c-0.508 0.884-0.663 1.929-0.434 2.924s0.826 1.864 1.67 2.432c-0.632-0.022-1.25-0.192-1.804-0.499v0.055c0.001 0.926 0.32 1.823 0.902 2.54s1.392 1.209 2.293 1.394c-0.342 0.095-0.695 0.142-1.050 0.14-0.25 0.001-0.5-0.023-0.745-0.070 0.255 0.797 0.75 1.494 1.418 1.993s1.473 0.775 2.305 0.79c-1.412 1.117-3.157 1.723-4.953 1.72-0.316 0.001-0.633-0.017-0.947-0.055 1.823 1.17 3.939 1.791 6.101 1.791z"/>
</symbol>
</defs>
</svg>
