<svg width="24.000000" height="24.000000" viewBox="0 0 24 24" fill="none" xmlns="http://www.w3.org/2000/svg" xmlns:xlink="http://www.w3.org/1999/xlink">
	<desc>
			Created with Pixso.
	</desc>
	<defs>
		<clipPath id="clip129_10550">
			<rect id="24px / united-kingdom" width="24.000000" height="24.000000" fill="white" fill-opacity="0"/>
		</clipPath>
	</defs>
	<rect id="24px / united-kingdom" width="24.000000" height="24.000000" fill="#FFFFFF" fill-opacity="0"/>
	<g clip-path="url(#clip129_10550)">
		<path id="Vector" d="M3.60938 6.75L20.3906 6.75L20.3906 17.25L3.60938 17.25L3.60938 6.75Z" fill="#4A7AFF" fill-opacity="1.000000" fill-rule="nonzero"/>
		<path id="Vector" d="M11.9805 6.75L20.3896 6.75L20.3896 17.25L11.9805 17.25L11.9805 6.75Z" fill="#0053BF" fill-opacity="1.000000" fill-rule="nonzero"/>
		<path id="Vector" d="M20.3906 6.75L18.3584 6.75L12 10.7283L5.6416 6.75L3.60938 6.75L3.60938 8.02173L9.96777 12L3.60938 15.9783L3.60938 17.25L5.6416 17.25L12 13.2717L18.3584 17.25L20.3906 17.25L20.3906 15.978L14.0322 12L20.3906 8.02197L20.3906 6.75Z" fill="#FA5D0F" fill-opacity="1.000000" fill-rule="nonzero"/>
		<path id="Vector" d="M20.3896 6.75L18.3574 6.75L12 10.7283L11.9805 10.7163L11.9805 13.2837L12 13.2717L18.3574 17.25L20.3896 17.25L20.3896 15.978L14.0322 12L20.3896 8.02197L20.3896 6.75Z" fill="#D13400" fill-opacity="1.000000" fill-rule="nonzero"/>
		<path id="Vector" d="M20.3906 10.6875L13.3125 10.6875L13.3125 6.75L10.6875 6.75L10.6875 10.6875L3.60938 10.6875L3.60938 13.3125L10.6875 13.3125L10.6875 17.25L13.3125 17.25L13.3125 13.3125L20.3906 13.3125L20.3906 10.6875Z" fill="#FA5D0F" fill-opacity="1.000000" fill-rule="nonzero"/>
		<path id="Vector" d="M13.3115 10.6875L13.3115 6.75L11.9805 6.75L11.9805 17.25L13.3115 17.25L13.3115 13.3125L20.3896 13.3125L20.3896 10.6875L13.3115 10.6875Z" fill="#D13400" fill-opacity="1.000000" fill-rule="nonzero"/>
		<path id="Vector" d="M10.3125 6.75L10.3125 9.22998L6.34863 6.75L4.93457 6.75L10.3125 10.1147L10.3125 10.3125L7.97754 10.3125L3.60938 7.57935L3.60938 8.46411L6.56348 10.3125L3.60938 10.3125L3.60938 11.0625L11.0625 11.0625L11.0625 6.75L10.3125 6.75Z" fill="#FFFFFF" fill-opacity="1.000000" fill-rule="nonzero"/>
		<path id="Vector" d="M3.60938 13.6875L6.56348 13.6875L3.60938 15.5359L3.60938 16.4207L7.97754 13.6875L10.3125 13.6875L10.3125 13.8853L4.93457 17.25L6.34863 17.25L10.3125 14.77L10.3125 17.25L11.0625 17.25L11.0625 12.9375L3.60938 12.9375L3.60938 13.6875Z" fill="#FFFFFF" fill-opacity="1.000000" fill-rule="nonzero"/>
		<path id="Vector" d="M20.3906 7.57959L16.0225 10.3125L13.6875 10.3125L13.6875 10.1147L19.0654 6.75L17.6514 6.75L13.6875 9.22998L13.6875 6.75L12.9375 6.75L12.9375 11.0625L20.3906 11.0625L20.3906 10.3125L17.4365 10.3125L20.3906 8.46411L20.3906 7.57959Z" fill="#E9EDF5" fill-opacity="1.000000" fill-rule="nonzero"/>
		<path id="Vector" d="M12.9375 17.25L13.6875 17.25L13.6875 14.77L17.6514 17.25L19.0654 17.25L13.6875 13.8853L13.6875 13.6875L16.0225 13.6875L20.3906 16.4207L20.3906 15.5359L17.4365 13.6875L20.3906 13.6875L20.3906 12.9375L12.9375 12.9375L12.9375 17.25Z" fill="#E9EDF5" fill-opacity="1.000000" fill-rule="nonzero"/>
	</g>
</svg>
