<svg width="38.000000" height="38.000000" viewBox="0 0 38 38" fill="none" xmlns="http://www.w3.org/2000/svg" xmlns:xlink="http://www.w3.org/1999/xlink">
	<desc>
			Created with Pixso.
	</desc>
	<defs>
		<clipPath id="clip3_20338">
			<rect id="24px / united-kingdom" width="24.000000" height="24.000000" transform="translate(7.000000 7.000000)" fill="white" fill-opacity="0"/>
		</clipPath>
	</defs>
	<circle id="Ellipse 1" cx="19.000000" cy="19.000000" r="19.000000" fill="#23252F" fill-opacity="1.000000"/>
	<rect id="24px / united-kingdom" width="24.000000" height="24.000000" transform="translate(7.000000 7.000000)" fill="#FFFFFF" fill-opacity="0"/>
	<g clip-path="url(#clip3_20338)">
		<path id="Vector" d="M10.6094 13.75L27.3906 13.75L27.3906 24.25L10.6094 24.25L10.6094 13.75Z" fill="#4A7AFF" fill-opacity="1.000000" fill-rule="nonzero"/>
		<path id="Vector" d="M18.9805 13.75L27.3906 13.75L27.3906 24.25L18.9805 24.25L18.9805 13.75Z" fill="#0053BF" fill-opacity="1.000000" fill-rule="nonzero"/>
		<path id="Vector" d="M27.3906 13.75L25.3574 13.75L19 17.7283L12.6426 13.75L10.6094 13.75L10.6094 15.0217L16.9668 19L10.6094 22.9783L10.6094 24.25L12.6426 24.25L19 20.2717L25.3574 24.25L27.3906 24.25L27.3906 22.9781L21.0332 19L27.3906 15.0219L27.3906 13.75Z" fill="#FA5D0F" fill-opacity="1.000000" fill-rule="nonzero"/>
		<path id="Vector" d="M27.3906 13.75L25.3574 13.75L19 17.7283L18.9805 17.7163L18.9805 20.2837L19 20.2717L25.3574 24.25L27.3906 24.25L27.3906 22.9781L21.0312 19L27.3906 15.0219L27.3906 13.75Z" fill="#D13400" fill-opacity="1.000000" fill-rule="nonzero"/>
		<path id="Vector" d="M27.3906 17.6875L20.3125 17.6875L20.3125 13.75L17.6875 13.75L17.6875 17.6875L10.6094 17.6875L10.6094 20.3125L17.6875 20.3125L17.6875 24.25L20.3125 24.25L20.3125 20.3125L27.3906 20.3125L27.3906 17.6875Z" fill="#FA5D0F" fill-opacity="1.000000" fill-rule="nonzero"/>
		<path id="Vector" d="M20.3125 17.6875L20.3125 13.75L18.9805 13.75L18.9805 24.25L20.3125 24.25L20.3125 20.3125L27.3906 20.3125L27.3906 17.6875L20.3125 17.6875Z" fill="#D13400" fill-opacity="1.000000" fill-rule="nonzero"/>
		<path id="Vector" d="M17.3125 13.75L17.3125 16.23L13.3496 13.75L11.9355 13.75L17.3125 17.1147L17.3125 17.3125L14.9766 17.3125L10.6094 14.5793L10.6094 15.4641L13.5645 17.3125L10.6094 17.3125L10.6094 18.0625L18.0625 18.0625L18.0625 13.75L17.3125 13.75Z" fill="#FFFFFF" fill-opacity="1.000000" fill-rule="nonzero"/>
		<path id="Vector" d="M10.6094 20.6875L13.5645 20.6875L10.6094 22.5359L10.6094 23.4207L14.9766 20.6875L17.3125 20.6875L17.3125 20.8853L11.9355 24.25L13.3496 24.25L17.3125 21.77L17.3125 24.25L18.0625 24.25L18.0625 19.9375L10.6094 19.9375L10.6094 20.6875Z" fill="#FFFFFF" fill-opacity="1.000000" fill-rule="nonzero"/>
		<path id="Vector" d="M27.3906 14.5795L23.0234 17.3125L20.6875 17.3125L20.6875 17.1147L26.0645 13.75L24.6504 13.75L20.6875 16.2301L20.6875 13.75L19.9375 13.75L19.9375 18.0625L27.3906 18.0625L27.3906 17.3125L24.4375 17.3125L27.3906 15.4642L27.3906 14.5795Z" fill="#E9EDF5" fill-opacity="1.000000" fill-rule="nonzero"/>
		<path id="Vector" d="M19.9375 24.25L20.6875 24.25L20.6875 21.7699L24.6504 24.25L26.0645 24.25L20.6875 20.8853L20.6875 20.6875L23.0234 20.6875L27.3906 23.4205L27.3906 22.5359L24.4375 20.6875L27.3906 20.6875L27.3906 19.9375L19.9375 19.9375L19.9375 24.25Z" fill="#E9EDF5" fill-opacity="1.000000" fill-rule="nonzero"/>
	</g>
</svg>
