<svg width="137.000000" height="53.000000" viewBox="0 0 137 53" fill="none" xmlns="http://www.w3.org/2000/svg" xmlns:xlink="http://www.w3.org/1999/xlink">
	<desc>
			Created with Pixso.
	</desc>
	<defs/>
	<rect id="logo" width="137.000000" height="53.000000" fill="#FFFFFF" fill-opacity="0"/>
	<path id="Adex" d="M58.9707 17.757L60.0977 21L62.9512 21L57.1309 4.9L53.957 4.9L48.1152 21L50.9902 21L52.1172 17.757L58.9707 17.757ZM74.3613 5.62821Q72.8613 4.9 71.0059 4.9L64.6816 4.9L64.6816 21L71.0059 21Q72.8613 21 74.3613 20.2717L74.3613 20.2717Q75.541 19.6993 76.5039 18.677Q77.4121 17.7116 77.9473 16.5709L77.9473 16.5708Q78.7109 14.9396 78.7109 12.95Q78.7109 10.8775 77.8926 9.20572Q77.3672 8.13166 76.5039 7.223Q75.541 6.20067 74.3613 5.62826L74.3613 5.62821ZM83.7676 18.47L90.8984 18.47L90.8984 21L81.123 21L81.123 4.9L90.7832 4.9L90.7832 7.43L83.7676 7.43L83.7676 11.616L90.207 11.616L90.207 14.123L83.7676 14.123L83.7676 18.47ZM102.15 21L105.164 21L100.127 12.72L104.889 4.9L101.875 4.9L98.6094 10.259L95.3438 4.9L92.3535 4.9L97.1133 12.72L92.0547 21L95.0664 21L98.6094 15.181L102.15 21ZM73.4727 17.8857Q72.3984 18.47 71.0059 18.47L67.3262 18.47L67.3262 7.43L71.0059 7.43Q72.3984 7.43 73.4727 8.01428Q74.1543 8.38593 74.709 8.994Q75.0898 9.39911 75.3711 9.86461Q76.1582 11.1699 76.1582 12.95Q76.1582 14.651 75.4258 15.9333L75.4258 15.9333Q75.1289 16.4542 74.709 16.906Q74.1543 17.5141 73.4727 17.8857L73.4727 17.8857ZM55.5449 8.005L58.0977 15.273L52.9922 15.273L55.5449 8.005Z" fill="#FFFFFF" fill-opacity="1.000000" fill-rule="evenodd"/>
	<path id="capital" d="M57.2227 47.299Q54.9648 47.299 53.1855 46.3756Q52.1016 45.8128 51.1973 44.907Q50.1699 43.8708 49.584 42.6271Q48.8047 40.9722 48.8047 38.95Q48.8047 36.9018 49.6055 35.2382Q50.1875 34.0248 51.1973 33.016Q52.125 32.079 53.2402 31.5055Q54.998 30.601 57.2227 30.601C58.6797 30.601 60.0215 30.946 61.248 31.636Q62.4336 32.2945 63.2832 33.2508Q63.7695 33.7977 64.1465 34.442L61.8457 35.776Q61.6152 35.3471 61.3066 34.9833L61.3066 34.9832Q60.7559 34.3325 59.959 33.89Q59.666 33.7184 59.3555 33.5881Q58.375 33.177 57.2227 33.177Q55.4414 33.177 54.123 33.9573Q53.5332 34.3058 53.0371 34.81Q52.5098 35.3529 52.1562 35.9925Q51.4492 37.2765 51.4492 38.95Q51.4492 40.6235 52.1562 41.9075Q52.5098 42.5471 53.0371 43.09Q53.5332 43.5942 54.123 43.9427Q55.4414 44.723 57.2227 44.723Q58.375 44.723 59.3672 44.3259Q59.6836 44.1996 59.9824 44.033C60.8105 43.5577 61.4316 42.9213 61.8457 42.124L64.1465 43.435Q63.8164 44.0119 63.3965 44.5131L63.3965 44.5132Q62.5273 45.5506 61.2715 46.264C60.0449 46.954 58.6953 47.299 57.2227 47.299ZM76.7188 47L75.5918 43.757L68.7383 43.757L67.6113 47L64.7363 47L70.5781 30.9L73.752 30.9L79.5703 47L76.7188 47ZM87.2363 30.9C88.7539 30.9 90.0195 31.406 91.0312 32.418C92.0586 33.43 92.5723 34.6873 92.5723 36.19C92.5723 37.6773 92.0586 38.9347 91.0312 39.962Q90.4238 40.5692 89.6953 40.9335L89.6953 40.9335Q88.6016 41.48 87.2363 41.48L83.9473 41.48L83.9473 47L81.3027 47L81.3027 30.9L87.2363 30.9ZM94.8691 30.9L97.5137 30.9L97.5137 47L94.8691 47L94.8691 30.9ZM111.195 30.9L111.195 33.43L106.664 33.43L106.664 47L104.02 47L104.02 33.43L99.4648 33.43L99.4648 30.9L111.195 30.9ZM122.494 47L121.367 43.757L114.514 43.757L113.387 47L110.512 47L116.354 30.9L119.527 30.9L125.346 47L122.494 47ZM129.723 44.47L136.277 44.47L136.277 47L127.078 47L127.078 30.9L129.723 30.9L129.723 44.47ZM87.2363 38.996C88.0176 38.996 88.6621 38.7353 89.168 38.214C89.6738 37.6773 89.9277 37.0027 89.9277 36.19C89.9277 35.3773 89.6738 34.7103 89.168 34.189Q88.8594 33.8611 88.4805 33.6667Q87.9316 33.384 87.2363 33.384L83.9473 33.384L83.9473 38.996L87.2363 38.996ZM69.6113 41.273L74.7188 41.273L72.1641 34.005L69.6113 41.273ZM115.387 41.273L120.494 41.273L117.939 34.005L115.387 41.273Z" fill="#FFFFFF" fill-opacity="1.000000" fill-rule="evenodd"/>
	<path id="Rectangle 212 (Stroke)" d="M0.0351562 31.9876C0.568359 24.2609 7.17578 18.1546 15.2461 18.1546L32 18.1546L32 26.3114L15.2461 26.3114C11.8047 26.3114 8.95508 28.7756 8.45508 31.9908C8.36914 32.5437 7.92383 32.9999 7.36328 32.9999L1.01367 32.9999C0.453125 32.9999 -0.00390625 32.5458 0.0351562 31.9876Z" fill="#535FE6" fill-opacity="1.000000" fill-rule="evenodd"/>
	<path id="Rectangle 214 (Stroke)" d="M0 31.6903C0 20.3886 9.37695 11.2267 20.9434 11.2267L32 11.2267L32 19.4121L20.9434 19.4121C14.002 19.4121 8.37695 24.9092 8.37695 31.6903L8.37695 31.9868C8.37695 32.5463 7.92383 32.9999 7.36328 32.9999L1.01367 32.9999C0.453125 32.9999 0 32.5463 0 31.9868L0 31.6903Z" fill="#4452EE" fill-opacity="1.000000" fill-rule="evenodd"/>
	<path id="Rectangle 211 (Stroke)" d="M0 30.3046C0 18.675 9.37695 9.24736 20.9434 9.24736L32 9.24736L32 17.6703L20.9434 17.6703C14.002 17.6703 8.37695 23.3268 8.37695 30.3046L8.37695 31.9868C8.37695 32.5463 7.92383 32.9999 7.36328 32.9999L1.01367 32.9999C0.453125 32.9999 0 32.5463 0 31.9868L0 30.3046Z" fill="#1B1A1A" fill-opacity="1.000000" fill-rule="evenodd"/>
	<path id="Rectangle 213 (Stroke)" d="M0 23.2681C0 11.8808 9.37695 2.64954 20.9434 2.64954L32 2.64954L32 10.897L20.9434 10.897C14.002 10.897 8.37695 16.4357 8.37695 23.2681L8.37695 31.9869C8.37695 32.5465 7.92383 33.0001 7.36328 33.0001L1.01367 33.0001C0.453125 33.0001 0 32.5465 0 31.9869L0 23.2681Z" fill="#0F828C" fill-opacity="1.000000" fill-rule="evenodd"/>
	<path id="Rectangle 210 (Stroke)" d="M0 21.9424C0 10.3762 9.37695 1 20.9434 1L30.9863 1C31.5469 1 32 1.45359 32 2.01312L32 9.37696L20.9434 9.37696C14.002 9.37696 8.37695 15.0027 8.37695 21.9424L8.37695 31.9869C8.37695 32.5464 7.92383 33 7.36328 33L1.01367 33C0.453125 33 0 32.5464 0 31.9869L0 21.9424Z" fill="#20C1CF" fill-opacity="1.000000" fill-rule="evenodd"/>
	<path id="Vector 47 (Stroke)" d="M23.752 31.9869L23.752 1L30.9863 1C31.5449 1 32 1.45359 32 2.01312L32 31.9869C32 32.5464 31.5449 33 30.9863 33L24.7656 33C24.2051 33 23.752 32.5464 23.752 31.9869Z" fill="#535FE6" fill-opacity="1.000000" fill-rule="evenodd"/>
</svg>
