<svg width="24.000000" height="24.000000" viewBox="0 0 24 24" fill="none" xmlns="http://www.w3.org/2000/svg" xmlns:xlink="http://www.w3.org/1999/xlink">
	<desc>
			Created with Pixso.
	</desc>
	<defs/>
	<rect id="24px / menu" width="24.000000" height="24.000000" fill="#FFFFFF" fill-opacity="0"/>
	<path id="Path (Stroke)" d="M1.99609 5.99756C1.99609 5.44531 2.44336 4.99756 2.99609 4.99756L21.0039 4.99756C21.5566 4.99756 22.0039 5.44531 22.0039 5.99756C22.0039 6.5498 21.5566 6.99756 21.0039 6.99756L2.99609 6.99756C2.44336 6.99756 1.99609 6.5498 1.99609 5.99756Z" fill="#FFFFFF" fill-opacity="1.000000" fill-rule="evenodd"/>
	<path id="Path (Stroke)" d="M1.99609 12C1.99609 11.4478 2.44336 11 2.99609 11L17.002 11C17.5547 11 18.002 11.4478 18.002 12C18.002 12.5522 17.5547 13 17.002 13L2.99609 13C2.44336 13 1.99609 12.5522 1.99609 12Z" fill="#FFFFFF" fill-opacity="1.000000" fill-rule="evenodd"/>
	<path id="Path (Stroke)" d="M1.99609 18.0024C1.99609 17.4502 2.44336 17.0024 2.99609 17.0024L13 17.0024C13.5527 17.0024 14 17.4502 14 18.0024C14 18.5547 13.5527 19.0024 13 19.0024L2.99609 19.0024C2.44336 19.0024 1.99609 18.5547 1.99609 18.0024Z" fill="#FFFFFF" fill-opacity="1.000000" fill-rule="evenodd"/>
</svg>
