<svg width="32.000000" height="32.000000" viewBox="0 0 32 32" fill="none" xmlns="http://www.w3.org/2000/svg" xmlns:xlink="http://www.w3.org/1999/xlink">
	<desc>
			Created with Pixso.
	</desc>
	<defs>
		<clipPath id="clip3_20370">
			<rect id="24px / facebook" width="24.000000" height="24.000000" transform="translate(4.000000 4.000000)" fill="white" fill-opacity="0"/>
		</clipPath>
		<linearGradient id="paint_linear_3_20369_0" x1="22.574553" y1="22.197989" x2="2.007273" y2="4.407467" gradientUnits="userSpaceOnUse">
			<stop stop-color="#535FE6" stop-opacity="0.839216"/>
			<stop offset="1.000000" stop-color="#20C1CF" stop-opacity="0.568627"/>
		</linearGradient>
	</defs>
	<rect id="BG" rx="12.000000" width="32.000000" height="32.000000" fill="url(#paint_linear_3_20369_0)" fill-opacity="1.000000"/>
	<rect id="24px / facebook" width="24.000000" height="24.000000" transform="translate(4.000000 4.000000)" fill="#FFFFFF" fill-opacity="0"/>
	<g clip-path="url(#clip3_20370)">
		<path id="Vector" d="M20.3242 8.0033L18.25 8C15.918 8 14.4121 9.54553 14.4121 11.9376L14.4121 13.7532L12.3262 13.7532C12.1465 13.7532 12 13.8993 12 14.0796L12 16.71C12 16.8903 12.1465 17.0363 12.3262 17.0363L14.4121 17.0363L14.4121 23.6737C14.4121 23.854 14.5586 24 14.7383 24L17.4609 24C17.6406 24 17.7871 23.8539 17.7871 23.6737L17.7871 17.0363L20.2266 17.0363C20.4062 17.0363 20.5527 16.8903 20.5527 16.71L20.5527 14.0796C20.5527 13.993 20.5195 13.91 20.457 13.8489C20.3965 13.7876 20.3125 13.7532 20.2266 13.7532L17.7871 13.7532L17.7871 12.2141C17.7871 11.4744 17.9629 11.0989 18.9258 11.0989L20.3242 11.0984C20.5039 11.0984 20.6504 10.9523 20.6504 10.7721L20.6504 8.32959C20.6504 8.14966 20.5039 8.00366 20.3242 8.0033Z" fill="#FFFFFF" fill-opacity="1.000000" fill-rule="nonzero"/>
	</g>
</svg>
