<svg width="32.000000" height="32.000000" viewBox="0 0 32 32" fill="none" xmlns="http://www.w3.org/2000/svg" xmlns:xlink="http://www.w3.org/1999/xlink">
	<desc>
			Created with Pixso.
	</desc>
	<defs>
		<clipPath id="clip3_20379">
			<rect id="24px / telegram" width="24.000000" height="24.000000" transform="translate(4.000000 4.000000)" fill="white" fill-opacity="0"/>
		</clipPath>
		<linearGradient id="paint_linear_3_20378_0" x1="22.574553" y1="22.197989" x2="2.007273" y2="4.407467" gradientUnits="userSpaceOnUse">
			<stop stop-color="#535FE6" stop-opacity="0.839216"/>
			<stop offset="1.000000" stop-color="#20C1CF" stop-opacity="0.568627"/>
		</linearGradient>
	</defs>
	<rect id="BG" rx="12.000000" width="32.000000" height="32.000000" fill="url(#paint_linear_3_20378_0)" fill-opacity="1.000000"/>
	<rect id="24px / telegram" width="24.000000" height="24.000000" transform="translate(4.000000 4.000000)" fill="#FFFFFF" fill-opacity="0"/>
	<g clip-path="url(#clip3_20379)">
		<path id="Vector" d="M15.0234 18.03L14.8105 21.0082C15.1133 21.0082 15.2441 20.8781 15.4023 20.7218L16.8223 19.3645L19.7656 21.5197C20.3047 21.8204 20.6855 21.6621 20.8301 21.0232L22.7637 11.9714L22.7637 11.9708C22.9336 11.173 22.4746 10.861 21.9492 11.0568L10.5938 15.4039C9.81836 15.7047 9.83008 16.1367 10.4629 16.3325L13.3652 17.2355L20.1074 13.0162C20.4258 12.806 20.7148 12.9224 20.4766 13.1324L15.0234 18.03Z" fill="#FFFFFF" fill-opacity="1.000000" fill-rule="nonzero"/>
	</g>
</svg>
