<svg width="32.000000" height="32.000000" viewBox="0 0 32 32" fill="none" xmlns="http://www.w3.org/2000/svg" xmlns:xlink="http://www.w3.org/1999/xlink">
	<desc>
			Created with Pixso.
	</desc>
	<defs>
		<clipPath id="clip3_20364">
			<rect id="24px / twitter" width="24.000000" height="24.000000" transform="translate(4.000000 4.000000)" fill="white" fill-opacity="0"/>
		</clipPath>
		<linearGradient id="paint_linear_3_20363_0" x1="22.574553" y1="22.197989" x2="2.007273" y2="4.407467" gradientUnits="userSpaceOnUse">
			<stop stop-color="#535FE6" stop-opacity="0.839216"/>
			<stop offset="1.000000" stop-color="#20C1CF" stop-opacity="0.568627"/>
		</linearGradient>
	</defs>
	<rect id="BG" rx="12.000000" width="32.000000" height="32.000000" fill="url(#paint_linear_3_20363_0)" fill-opacity="1.000000"/>
	<rect id="24px / twitter" width="24.000000" height="24.000000" transform="translate(4.000000 4.000000)" fill="#FFFFFF" fill-opacity="0"/>
	<g clip-path="url(#clip3_20364)">
		<path id="Vector" d="M23 11.3467C22.4785 11.575 21.9238 11.7263 21.3457 11.7999C21.9414 11.4446 22.3945 10.8864 22.6094 10.2135C22.0547 10.5442 21.4414 10.7778 20.7891 10.9082C20.2617 10.3474 19.5117 10 18.6914 10C17.1035 10 15.8242 11.2898 15.8242 12.8708C15.8242 13.0984 15.8438 13.3171 15.8906 13.5254C13.5039 13.4091 11.3926 12.2654 9.97461 10.5232C9.72656 10.9529 9.58203 11.4446 9.58203 11.974C9.58203 12.968 10.0938 13.8491 10.8574 14.3593C10.3965 14.3505 9.94336 14.2167 9.56055 14.0057C9.56055 14.0145 9.56055 14.0259 9.56055 14.0372C9.56055 15.432 10.5547 16.5905 11.8594 16.8574C11.625 16.9213 11.3711 16.9519 11.1074 16.9519C10.9238 16.9519 10.7383 16.9414 10.5645 16.9028C10.9355 18.0396 11.9902 18.8751 13.2461 18.9022C12.2695 19.6661 11.0293 20.1263 9.6875 20.1263C9.45117 20.1263 9.22656 20.1158 9 20.087C10.2715 20.9069 11.7773 21.375 13.4023 21.375C18.6836 21.375 21.5723 17 21.5723 13.2078C21.5723 13.0809 21.5684 12.9584 21.5605 12.8368C22.1309 12.4325 22.6094 11.9276 23 11.3467Z" fill="#FFFFFF" fill-opacity="1.000000" fill-rule="nonzero"/>
	</g>
</svg>
