<svg width="24.000000" height="24.000000" viewBox="0 0 24 24" fill="none" xmlns="http://www.w3.org/2000/svg">
	<desc>
			Created with Pixso.
	</desc>
	<defs/>
	<rect width="24.000000" height="24.000000" transform="translate(24.000000 24.000000) rotate(-179.999985)" fill="#FFFFFF" fill-opacity="0"/>
	<path d="M12 0C2.11804 0 0 2.11804 0 12C0 21.882 2.11804 24 12 24C21.882 24 24 21.882 24 12C24 2.11804 21.882 0 12 0ZM10.7072 7.29285L14.7072 11.2928C15.0977 11.6835 15.0977 12.3165 14.7072 12.7072L10.7072 16.7072C10.3165 17.0977 9.68347 17.0977 9.29285 16.7072C8.90234 16.3165 8.90234 15.6835 9.29285 15.2928L12.5858 12L9.29285 8.70715C8.90234 8.31653 8.90234 7.68347 9.29285 7.29285C9.68347 6.90234 10.3165 6.90234 10.7072 7.29285Z" fill="#FFFFFF" fill-opacity="1.000000" fill-rule="evenodd"/>
</svg>
