<svg width="24.000000" height="24.000000" viewBox="0 0 24 24" fill="none" xmlns="http://www.w3.org/2000/svg">
	<desc>
			Created with Pixso.
	</desc>
	<defs/>
	<rect width="24.000000" height="24.000000" transform="translate(24.000000 24.000000) rotate(-179.999985)" fill="#FFFFFF" fill-opacity="0"/>
	<path d="M12 0C21.882 0 24 2.11804 24 12C24 21.882 21.882 24 12 24C2.11804 24 0 21.882 0 12C0 2.11804 2.11804 0 12 0ZM13.2928 7.29285L9.29285 11.2928C8.90234 11.6835 8.90234 12.3165 9.29285 12.7072L13.2928 16.7072C13.6835 17.0977 14.3165 17.0977 14.7072 16.7072C15.0977 16.3165 15.0977 15.6835 14.7072 15.2928L11.4142 12L14.7072 8.70715C15.0977 8.31653 15.0977 7.68347 14.7072 7.29285C14.3165 6.90234 13.6835 6.90234 13.2928 7.29285Z" fill="#FFFFFF" fill-opacity="1.000000" fill-rule="evenodd"/>
</svg>
