<svg aria-hidden="true" style="position: absolute; width: 0; height: 0; overflow: hidden;" version="1.1" xmlns="http://www.w3.org/2000/svg" xmlns:xlink="http://www.w3.org/1999/xlink">
<defs>
<symbol id="icon-auth-basket-icon" viewBox="0 0 32 32">
<path fill="#23a6f0" style="fill: var(--color1, #23a6f0)" d="M1 2c0-0.265 0.105-0.52 0.293-0.707s0.442-0.293 0.707-0.293h3c0.223 0 0.44 0.075 0.615 0.212s0.301 0.33 0.355 0.546l0.81 3.242h23.22c0.147 0 0.292 0.033 0.425 0.095s0.25 0.153 0.344 0.266c0.094 0.113 0.161 0.245 0.198 0.387s0.042 0.291 0.015 0.435l-3 16c-0.043 0.229-0.165 0.436-0.344 0.585s-0.405 0.231-0.638 0.231h-18c-0.233-0-0.459-0.082-0.638-0.231s-0.301-0.356-0.344-0.585l-2.998-15.97-0.8-3.214h-2.22c-0.265 0-0.52-0.105-0.707-0.293s-0.293-0.442-0.293-0.707zM7.205 7l2.626 14h16.34l2.626-14h-21.592zM11.001 23c-1.061 0-2.078 0.421-2.828 1.172s-1.172 1.768-1.172 2.828c0 1.061 0.421 2.078 1.172 2.828s1.768 1.172 2.828 1.172c1.061 0 2.078-0.421 2.828-1.172s1.172-1.768 1.172-2.828c0-1.061-0.421-2.078-1.172-2.828s-1.768-1.172-2.828-1.172zM25.001 23c-1.061 0-2.078 0.421-2.828 1.172s-1.172 1.768-1.172 2.828 0.421 2.078 1.172 2.828c0.75 0.75 1.768 1.172 2.828 1.172s2.078-0.421 2.828-1.172c0.75-0.75 1.172-1.768 1.172-2.828s-0.421-2.078-1.172-2.828c-0.75-0.75-1.768-1.172-2.828-1.172zM11.001 25c0.53 0 1.039 0.211 1.414 0.586s0.586 0.884 0.586 1.414c0 0.53-0.211 1.039-0.586 1.414s-0.884 0.586-1.414 0.586c-0.53 0-1.039-0.211-1.414-0.586s-0.586-0.884-0.586-1.414c0-0.53 0.211-1.039 0.586-1.414s0.884-0.586 1.414-0.586zM25.001 25c0.53 0 1.039 0.211 1.414 0.586s0.586 0.884 0.586 1.414c0 0.53-0.211 1.039-0.586 1.414s-0.884 0.586-1.414 0.586c-0.53 0-1.039-0.211-1.414-0.586s-0.586-0.884-0.586-1.414 0.211-1.039 0.586-1.414c0.375-0.375 0.884-0.586 1.414-0.586z"></path>
</symbol>
<symbol id="icon-auth-heart-icon" viewBox="0 0 32 32">
<path fill="#23a6f0" style="fill: var(--color1, #23a6f0)" d="M16 6.496l-1.434-1.474c-3.366-3.46-9.538-2.266-11.766 2.084-1.046 2.046-1.282 5 0.628 8.77 1.84 3.63 5.668 7.978 12.572 12.714 6.904-4.736 10.73-9.084 12.572-12.714 1.91-3.772 1.676-6.724 0.628-8.77-2.228-4.35-8.4-5.546-11.766-2.086l-1.434 1.476zM16 31c-30.666-20.264-9.442-36.080-0.352-27.714 0.12 0.11 0.238 0.224 0.352 0.342 0.113-0.118 0.23-0.231 0.352-0.34 9.088-8.372 30.314 7.446-0.352 27.712z"></path>
</symbol>
<symbol id="icon-auth-human-icon" viewBox="0 0 32 32">
<path fill="#23a6f0" style="fill: var(--color1, #23a6f0)" d="M16 16c2.122 0 4.157-0.843 5.657-2.343s2.343-3.535 2.343-5.657c0-2.122-0.843-4.157-2.343-5.657s-3.535-2.343-5.657-2.343c-2.122 0-4.157 0.843-5.657 2.343s-2.343 3.535-2.343 5.657c0 2.122 0.843 4.157 2.343 5.657s3.535 2.343 5.657 2.343zM21.333 8c0 1.414-0.562 2.771-1.562 3.771s-2.357 1.562-3.771 1.562c-1.415 0-2.771-0.562-3.771-1.562s-1.562-2.357-1.562-3.771c0-1.414 0.562-2.771 1.562-3.771s2.357-1.562 3.771-1.562c1.414 0 2.771 0.562 3.771 1.562s1.562 2.357 1.562 3.771zM32 29.333c0 2.667-2.667 2.667-2.667 2.667h-26.667c0 0-2.667 0-2.667-2.667s2.667-10.667 16-10.667c13.333 0 16 8 16 10.667zM29.333 29.323c-0.003-0.656-0.411-2.629-2.219-4.437-1.739-1.739-5.011-3.552-11.115-3.552-6.107 0-9.376 1.813-11.115 3.552-1.808 1.808-2.213 3.781-2.219 4.437h26.667z"></path>
</symbol>
<symbol id="icon-auth-search-icon" viewBox="0 0 32 32">
<path fill="#23a6f0" style="fill: var(--color1, #23a6f0)" d="M23.485 20.686c1.936-2.643 2.804-5.919 2.429-9.174s-1.966-6.248-4.453-8.38c-2.487-2.132-5.688-3.247-8.962-3.121s-6.379 1.484-8.695 3.801c-2.316 2.317-3.671 5.424-3.795 8.698s0.993 6.474 3.127 8.96c2.134 2.486 5.128 4.074 8.383 4.447s6.531-0.497 9.172-2.435h-0.002c0.060 0.080 0.124 0.156 0.196 0.23l7.7 7.7c0.375 0.375 0.884 0.586 1.414 0.586s1.039-0.21 1.415-0.585c0.375-0.375 0.586-0.884 0.586-1.414s-0.21-1.039-0.585-1.415l-7.7-7.7c-0.072-0.072-0.148-0.139-0.23-0.2v0.002zM24.001 12.998c0 1.445-0.285 2.875-0.837 4.21s-1.363 2.547-2.385 3.569c-1.021 1.021-2.234 1.832-3.569 2.384s-2.765 0.837-4.21 0.837c-1.445 0-2.875-0.285-4.21-0.837s-2.547-1.363-3.569-2.384c-1.021-1.022-1.832-2.234-2.385-3.569s-0.837-2.765-0.837-4.21c0-2.917 1.159-5.715 3.222-7.778s4.861-3.222 7.778-3.222c2.917 0 5.715 1.159 7.778 3.222s3.222 4.861 3.222 7.778z"></path>
</symbol>
</defs>
</svg>
