<svg aria-hidden="true" style="position: absolute; width: 0; height: 0; overflow: hidden;" version="1.1" xmlns="http://www.w3.org/2000/svg" xmlns:xlink="http://www.w3.org/1999/xlink">
<defs>
<symbol id="icon-card-arrow-next" viewBox="0 0 20 32">
<path fill="#23a6f0" style="fill: var(--color1, #23a6f0)" d="M1.745 0.362c0.114-0.115 0.25-0.206 0.4-0.268s0.31-0.094 0.472-0.094c0.162 0 0.322 0.032 0.472 0.094s0.285 0.153 0.4 0.268l14.767 14.768c0.115 0.114 0.206 0.25 0.268 0.4s0.094 0.31 0.094 0.472c0 0.162-0.032 0.322-0.094 0.472s-0.153 0.285-0.268 0.4l-14.768 14.768c-0.231 0.231-0.544 0.361-0.871 0.361s-0.64-0.13-0.871-0.361c-0.231-0.231-0.361-0.545-0.361-0.871s0.13-0.64 0.361-0.871l13.899-13.896-13.899-13.896c-0.115-0.114-0.206-0.25-0.268-0.4s-0.094-0.31-0.094-0.472c0-0.162 0.032-0.322 0.094-0.472s0.153-0.285 0.268-0.4z"></path>
</symbol>
<symbol id="icon-card-clock-icon" viewBox="0 0 34 32">
<path fill="#23a6f0" style="fill: var(--color1, #23a6f0)" d="M17.005 32c-8.026-0.106-14.507-6.587-14.613-14.613 0.106-8.026 6.586-14.507 14.613-14.613 8.026 0.106 14.507 6.586 14.612 14.613-0.106 8.026-6.586 14.507-14.612 14.613zM17.005 6.022c-6.243 0.082-11.283 5.123-11.365 11.365 0.082 6.243 5.123 11.283 11.365 11.365 6.243-0.082 11.283-5.123 11.365-11.365-0.082-6.243-5.123-11.283-11.365-11.365zM25.123 19.011h-9.742v-9.742h3.247v6.495h6.495v3.247zM30.468 7.172l-4.885-4.871 2.288-2.301 4.887 4.871-2.289 2.301zM3.54 7.172l-2.297-2.301 4.856-4.871 2.297 2.301-4.856 4.871z"></path>
</symbol>
<symbol id="icon-card-graphic" viewBox="0 0 34 32">
<path fill="#23856d" style="fill: var(--color2, #23856d)" d="M33.646 28.396h-30.458v-27.625c0-0.195-0.159-0.354-0.354-0.354h-2.479c-0.195 0-0.354 0.159-0.354 0.354v30.459c0 0.195 0.159 0.354 0.354 0.354h33.292c0.195 0 0.354-0.159 0.354-0.354v-2.479c0-0.195-0.159-0.354-0.354-0.354zM6.375 25.562h23.729c0.195 0 0.354-0.159 0.354-0.354v-19.302c0-0.319-0.385-0.474-0.607-0.252l-9.31 9.31-5.552-5.49c-0.067-0.066-0.156-0.103-0.25-0.103s-0.184 0.037-0.25 0.103l-8.367 8.394c-0.032 0.033-0.058 0.071-0.076 0.114s-0.026 0.088-0.026 0.134v7.092c0 0.195 0.159 0.354 0.354 0.354z"></path>
</symbol>
</defs>
</svg>
