<svg aria-hidden="true" style="position: absolute; width: 0; height: 0; overflow: hidden;" version="1.1" xmlns="http://www.w3.org/2000/svg" xmlns:xlink="http://www.w3.org/1999/xlink">
<defs>
<symbol id="icon-header-convert-icon" viewBox="0 0 32 32">
<path fill="#fff" style="fill: var(--color1, #fff)" d="M-0 8c0-1.061 0.421-2.078 1.172-2.828s1.768-1.172 2.828-1.172h24c1.061 0 2.078 0.421 2.828 1.172s1.172 1.768 1.172 2.828v16c0 1.061-0.421 2.078-1.172 2.828s-1.768 1.172-2.828 1.172h-24c-1.061 0-2.078-0.421-2.828-1.172s-1.172-1.768-1.172-2.828v-16zM4 6c-0.53 0-1.039 0.211-1.414 0.586s-0.586 0.884-0.586 1.414v0.434l14 8.4 14-8.4v-0.434c0-0.53-0.211-1.039-0.586-1.414s-0.884-0.586-1.414-0.586h-24zM30 10.766l-9.516 5.71 9.516 5.752v-11.462zM29.932 24.522l-11.39-6.882-2.542 1.526-2.544-1.526-11.388 6.88c0.114 0.425 0.366 0.8 0.715 1.068s0.777 0.413 1.217 0.412h24c0.44 0 0.867-0.144 1.217-0.412s0.601-0.642 0.715-1.066zM2 22.228l9.516-5.752-9.516-5.71v11.462z"></path>
</symbol>
<symbol id="icon-header-facebook-icon" viewBox="0 0 34 32">
<path fill="#fff" style="fill: var(--color1, #fff)" d="M33.002 16.098c0-8.892-7.164-16.1-16-16.1-8.84 0.002-16.004 7.208-16.004 16.102 0 8.034 5.852 14.694 13.5 15.902v-11.25h-4.060v-4.652h4.064v-3.55c0-4.034 2.39-6.262 6.044-6.262 1.752 0 3.582 0.314 3.582 0.314v3.96h-2.018c-1.986 0-2.606 1.242-2.606 2.516v3.020h4.436l-0.708 4.652h-3.73v11.25c7.648-1.208 13.5-7.868 13.5-15.902z"></path>
</symbol>
<symbol id="icon-header-instagram-icon" viewBox="0 0 32 32">
<path fill="#fff" style="fill: var(--color1, #fff)" d="M16 0c-4.342 0-4.888 0.020-6.594 0.096-1.706 0.080-2.868 0.348-3.886 0.744-1.068 0.402-2.035 1.032-2.834 1.846-0.814 0.799-1.444 1.766-1.846 2.834-0.396 1.016-0.666 2.18-0.744 3.88-0.076 1.71-0.096 2.254-0.096 6.602 0 4.344 0.020 4.888 0.096 6.594 0.080 1.704 0.348 2.866 0.744 3.884 0.41 1.052 0.956 1.944 1.846 2.834 0.888 0.89 1.78 1.438 2.832 1.846 1.020 0.396 2.18 0.666 3.884 0.744 1.708 0.076 2.252 0.096 6.598 0.096s4.888-0.020 6.596-0.096c1.702-0.080 2.868-0.348 3.886-0.744 1.067-0.402 2.034-1.032 2.832-1.846 0.89-0.89 1.436-1.782 1.846-2.834 0.394-1.018 0.664-2.18 0.744-3.884 0.076-1.706 0.096-2.25 0.096-6.596s-0.020-4.89-0.096-6.598c-0.080-1.702-0.35-2.866-0.744-3.882-0.402-1.068-1.032-2.035-1.846-2.834-0.799-0.815-1.766-1.445-2.834-1.846-1.020-0.396-2.184-0.666-3.886-0.744-1.708-0.076-2.25-0.096-6.598-0.096h0.004zM14.566 2.884h1.436c4.272 0 4.778 0.014 6.464 0.092 1.56 0.070 2.408 0.332 2.972 0.55 0.746 0.29 1.28 0.638 1.84 1.198s0.906 1.092 1.196 1.84c0.22 0.562 0.48 1.41 0.55 2.97 0.078 1.686 0.094 2.192 0.094 6.462s-0.016 4.778-0.094 6.464c-0.070 1.56-0.332 2.406-0.55 2.97-0.257 0.695-0.666 1.323-1.198 1.838-0.56 0.56-1.092 0.906-1.84 1.196-0.56 0.22-1.408 0.48-2.97 0.552-1.686 0.076-2.192 0.094-6.464 0.094s-4.78-0.018-6.466-0.094c-1.56-0.072-2.406-0.332-2.97-0.552-0.695-0.256-1.324-0.665-1.84-1.196-0.532-0.516-0.943-1.145-1.2-1.84-0.218-0.562-0.48-1.41-0.55-2.97-0.076-1.686-0.092-2.192-0.092-6.466 0-4.272 0.016-4.776 0.092-6.462 0.072-1.56 0.332-2.408 0.552-2.972 0.29-0.746 0.638-1.28 1.198-1.84s1.092-0.906 1.84-1.196c0.564-0.22 1.41-0.48 2.97-0.552 1.476-0.068 2.048-0.088 5.030-0.090v0.004zM24.542 5.54c-0.252 0-0.502 0.050-0.735 0.146s-0.445 0.238-0.623 0.416c-0.178 0.178-0.32 0.39-0.416 0.623s-0.146 0.483-0.146 0.735 0.050 0.502 0.146 0.735c0.096 0.233 0.238 0.445 0.416 0.623s0.39 0.32 0.623 0.416c0.233 0.096 0.483 0.146 0.735 0.146 0.509 0 0.998-0.202 1.358-0.562s0.562-0.848 0.562-1.358-0.202-0.998-0.562-1.358c-0.36-0.36-0.848-0.562-1.358-0.562zM16.002 7.784c-1.090-0.017-2.172 0.183-3.184 0.588s-1.933 1.008-2.71 1.773c-0.777 0.765-1.394 1.676-1.815 2.682s-0.638 2.085-0.638 3.174c0 1.090 0.217 2.169 0.638 3.174s1.038 1.917 1.815 2.682c0.777 0.765 1.698 1.367 2.71 1.773s2.094 0.605 3.184 0.588c2.157-0.034 4.214-0.914 5.728-2.451s2.362-3.608 2.362-5.766-0.848-4.228-2.362-5.765c-1.514-1.537-3.571-2.418-5.728-2.451zM16.002 10.666c1.415 0 2.771 0.562 3.772 1.562s1.562 2.357 1.562 3.772c0 1.415-0.562 2.771-1.562 3.772s-2.357 1.562-3.772 1.562-2.771-0.562-3.772-1.562c-1-1-1.562-2.357-1.562-3.772s0.562-2.771 1.562-3.772c1-1 2.357-1.562 3.772-1.562z"></path>
</symbol>
<symbol id="icon-header-phone-icon" viewBox="0 0 32 32">
<path fill="#fff" style="fill: var(--color1, #fff)" d="M7.308 2.656c-0.118-0.152-0.267-0.277-0.437-0.367s-0.357-0.143-0.549-0.154c-0.192-0.012-0.384 0.017-0.564 0.085s-0.343 0.174-0.479 0.31l-2.068 2.070c-0.966 0.968-1.322 2.338-0.9 3.54 1.751 4.975 4.601 9.492 8.336 13.216 3.724 3.735 8.241 6.584 13.216 8.336 1.202 0.422 2.572 0.066 3.54-0.9l2.068-2.068c0.136-0.136 0.242-0.299 0.31-0.479s0.097-0.372 0.085-0.564c-0.012-0.192-0.064-0.379-0.154-0.549s-0.215-0.319-0.367-0.437l-4.614-3.588c-0.162-0.126-0.351-0.213-0.552-0.256s-0.409-0.038-0.608 0.012l-4.38 1.094c-0.585 0.146-1.197 0.138-1.778-0.023s-1.11-0.469-1.536-0.895l-4.912-4.914c-0.426-0.426-0.735-0.955-0.897-1.536s-0.169-1.193-0.023-1.778l1.096-4.38c0.050-0.199 0.054-0.407 0.011-0.608s-0.13-0.39-0.255-0.552l-3.588-4.614zM3.768 1.022c0.35-0.35 0.77-0.622 1.233-0.797s0.958-0.25 1.452-0.219c0.494 0.031 0.976 0.166 1.414 0.398s0.821 0.553 1.125 0.944l3.588 4.612c0.658 0.846 0.89 1.948 0.63 2.988l-1.094 4.38c-0.057 0.227-0.053 0.464 0.009 0.69s0.182 0.431 0.347 0.596l4.914 4.914c0.166 0.166 0.371 0.285 0.597 0.348s0.464 0.065 0.691 0.008l4.378-1.094c0.513-0.128 1.049-0.138 1.567-0.029s1.004 0.335 1.421 0.659l4.612 3.588c1.658 1.29 1.81 3.74 0.326 5.222l-2.068 2.068c-1.48 1.48-3.692 2.13-5.754 1.404-5.278-1.857-10.070-4.878-14.020-8.84-3.961-3.95-6.983-8.741-8.84-14.018-0.724-2.060-0.074-4.274 1.406-5.754l2.066-2.068z"></path>
</symbol>
<symbol id="icon-header-twitter-icon" viewBox="0 0 34 32">
<path fill="#fff" style="fill: var(--color1, #fff)" d="M11.052 29.001c12.076 0 18.682-10.006 18.682-18.668 0-0.28 0-0.564-0.012-0.844 1.286-0.931 2.396-2.084 3.278-3.404-1.201 0.53-2.474 0.879-3.778 1.036 1.373-0.821 2.401-2.112 2.894-3.634-1.29 0.764-2.702 1.301-4.174 1.586-0.99-1.054-2.299-1.752-3.726-1.986s-2.891 0.008-4.166 0.69c-1.275 0.682-2.289 1.765-2.886 3.082s-0.743 2.794-0.415 4.202c-2.611-0.131-5.164-0.809-7.496-1.991s-4.389-2.84-6.038-4.867c-0.837 1.446-1.093 3.157-0.715 4.785s1.362 3.051 2.751 3.979c-1.041-0.035-2.059-0.315-2.972-0.816v0.090c0.002 1.515 0.527 2.983 1.486 4.156s2.294 1.978 3.778 2.28c-0.563 0.155-1.146 0.233-1.73 0.23-0.412 0.001-0.823-0.037-1.228-0.114 0.42 1.304 1.237 2.444 2.337 3.261s2.428 1.269 3.798 1.293c-2.327 1.828-5.201 2.819-8.16 2.814-0.521 0.002-1.042-0.028-1.56-0.090 3.003 1.915 6.491 2.931 10.052 2.93z"></path>
</symbol>
<symbol id="icon-header-youtube-icon" viewBox="0 0 34 32">
<path fill="#fff" style="fill: var(--color1, #fff)" d="M17.103 4.761h0.178c1.644 0.006 9.974 0.066 12.22 0.67 0.679 0.184 1.298 0.544 1.794 1.042s0.854 1.118 1.036 1.798c0.202 0.76 0.344 1.766 0.44 2.804l0.020 0.208 0.044 0.52 0.016 0.208c0.13 1.828 0.146 3.54 0.148 3.914v0.15c-0.002 0.388-0.020 2.216-0.164 4.12l-0.016 0.21-0.018 0.208c-0.1 1.144-0.248 2.28-0.47 3.116-0.181 0.68-0.538 1.3-1.035 1.799s-1.116 0.858-1.795 1.041c-2.32 0.624-11.138 0.668-12.36 0.67h-0.284c-0.618 0-3.174-0.012-5.854-0.104l-0.34-0.012-0.174-0.008-0.684-0.028c-2.22-0.098-4.334-0.256-5.308-0.52-0.679-0.184-1.298-0.542-1.795-1.041s-0.854-1.118-1.035-1.797c-0.222-0.834-0.37-1.972-0.47-3.116l-0.016-0.21-0.016-0.208c-0.099-1.355-0.153-2.713-0.164-4.072v-0.246c0.004-0.43 0.020-1.916 0.128-3.556l0.014-0.206 0.006-0.104 0.016-0.208 0.044-0.52 0.020-0.208c0.096-1.038 0.238-2.046 0.44-2.804 0.181-0.68 0.538-1.3 1.035-1.799s1.116-0.858 1.795-1.041c0.974-0.26 3.088-0.42 5.308-0.52l0.34-0.014 0.516-0.018 0.342-0.014c1.903-0.061 3.808-0.095 5.712-0.102h0.386v-0.002zM13.801 11.181v9.636l8.314-4.816-8.314-4.82z"></path>
</symbol>
</defs>
</svg>
