<svg aria-hidden="true" style="position: absolute; width: 0; height: 0; overflow: hidden;" version="1.1" xmlns="http://www.w3.org/2000/svg" xmlns:xlink="http://www.w3.org/1999/xlink">
<defs>
<symbol id="icon-service-arrow-growth" viewBox="0 0 32 32">
<path fill="#23a6f0" style="fill: var(--color1, #23a6f0)" d="M31.872 7.39c-0.162-0.391-0.473-0.701-0.864-0.864-0.192-0.082-0.399-0.125-0.608-0.128h-7.998c-0.424 0-0.831 0.169-1.131 0.468s-0.468 0.707-0.468 1.131c0 0.424 0.169 0.831 0.468 1.131s0.707 0.469 1.131 0.469h4.143l-8.941 8.941-5.262-5.278c-0.149-0.15-0.326-0.269-0.521-0.35s-0.404-0.123-0.615-0.123c-0.211 0-0.42 0.042-0.615 0.123s-0.372 0.2-0.521 0.35l-9.597 9.597c-0.15 0.149-0.269 0.326-0.35 0.521s-0.123 0.404-0.123 0.615 0.042 0.42 0.123 0.615c0.081 0.195 0.2 0.372 0.35 0.521 0.149 0.15 0.326 0.269 0.521 0.35s0.404 0.123 0.615 0.123c0.211 0 0.42-0.042 0.615-0.123s0.372-0.2 0.521-0.35l8.462-8.478 5.262 5.278c0.149 0.15 0.326 0.269 0.521 0.35s0.404 0.123 0.615 0.123c0.211 0 0.42-0.042 0.615-0.123s0.372-0.2 0.521-0.35l10.061-10.077v4.143c0 0.424 0.169 0.831 0.468 1.131s0.707 0.468 1.131 0.468c0.424 0 0.831-0.169 1.131-0.468s0.468-0.707 0.468-1.131v-7.998c-0.003-0.209-0.046-0.415-0.128-0.608z"></path>
</symbol>
<symbol id="icon-service-book-reader" viewBox="0 0 32 32">
<path fill="#23a6f0" style="fill: var(--color1, #23a6f0)" d="M0 9.6v18.446c0 0 7.394-0.275 16 3.954 8.606-4.229 16-3.954 16-3.954v-18.446c0 0-8.726 0-16 3.954-7.274-3.954-16-3.954-16-3.954z"></path>
<path fill="#23a6f0" style="fill: var(--color1, #23a6f0)" d="M16 9.6c2.651 0 4.8-2.149 4.8-4.8s-2.149-4.8-4.8-4.8c-2.651 0-4.8 2.149-4.8 4.8s2.149 4.8 4.8 4.8z"></path>
</symbol>
<symbol id="icon-service-concrete-carbon_book" viewBox="0 0 32 32">
<path fill="#23a6f0" style="fill: var(--color1, #23a6f0)" d="M19.429 9.143h8v2.286h-8v-2.286z"></path>
<path fill="#23a6f0" style="fill: var(--color1, #23a6f0)" d="M19.429 14.857h8v2.286h-8v-2.286z"></path>
<path fill="#23a6f0" style="fill: var(--color1, #23a6f0)" d="M19.429 20.571h8v2.286h-8v-2.286z"></path>
<path fill="#23a6f0" style="fill: var(--color1, #23a6f0)" d="M4.571 9.143h8v2.286h-8v-2.286z"></path>
<path fill="#23a6f0" style="fill: var(--color1, #23a6f0)" d="M4.571 14.857h8v2.286h-8v-2.286z"></path>
<path fill="#23a6f0" style="fill: var(--color1, #23a6f0)" d="M4.571 20.571h8v2.286h-8v-2.286z"></path>
<path fill="#23a6f0" style="fill: var(--color1, #23a6f0)" d="M29.714 3.429h-27.429c-0.606 0.001-1.187 0.242-1.616 0.67s-0.67 1.010-0.67 1.616v20.571c0.001 0.606 0.242 1.187 0.67 1.616s1.010 0.669 1.616 0.67h27.429c0.606-0.001 1.187-0.242 1.616-0.67s0.669-1.010 0.67-1.616v-20.571c-0.001-0.606-0.242-1.187-0.67-1.616s-1.010-0.67-1.616-0.67zM2.286 5.714h12.571v20.571h-12.571v-20.571zM17.143 26.286v-20.571h12.571v20.571h-12.571z"></path>
</symbol>
</defs>
</svg>
