<svg aria-hidden="true" style="position: absolute; width: 0; height: 0; overflow: hidden;" version="1.1" xmlns="http://www.w3.org/2000/svg" xmlns:xlink="http://www.w3.org/1999/xlink">
<defs>
<symbol id="icon-sn-facebook" viewBox="0 0 31 32">
<path fill="#23a6f0" style="fill: var(--color1, #23a6f0)" d="M30.719 16.094c0-8.535-6.876-15.454-15.358-15.454-8.485 0.002-15.361 6.919-15.361 15.455 0 7.711 5.617 14.104 12.958 15.263v-10.798h-3.897v-4.465h3.901v-3.408c0-3.872 2.294-6.011 5.801-6.011 1.682 0 3.438 0.301 3.438 0.301v3.801h-1.937c-1.906 0-2.501 1.192-2.501 2.415v2.899h4.258l-0.68 4.465h-3.58v10.798c7.341-1.16 12.958-7.552 12.958-15.264z"></path>
</symbol>
<symbol id="icon-sn-instagram" viewBox="0 0 31 32">
<path fill="#23a6f0" style="fill: var(--color1, #23a6f0)" d="M15.359 0.641c-4.168 0-4.692 0.019-6.33 0.092-1.638 0.077-2.753 0.334-3.73 0.714-1.025 0.386-1.954 0.99-2.721 1.772-0.781 0.767-1.386 1.696-1.772 2.721-0.38 0.975-0.639 2.093-0.714 3.725-0.073 1.642-0.092 2.164-0.092 6.338 0 4.17 0.019 4.692 0.092 6.33 0.077 1.636 0.334 2.751 0.714 3.729 0.394 1.010 0.918 1.866 1.772 2.721 0.852 0.854 1.709 1.38 2.719 1.772 0.979 0.38 2.093 0.639 3.729 0.714 1.64 0.073 2.162 0.092 6.334 0.092s4.692-0.019 6.332-0.092c1.634-0.077 2.753-0.334 3.731-0.714 1.024-0.386 1.952-0.991 2.719-1.772 0.854-0.854 1.378-1.711 1.772-2.721 0.378-0.977 0.637-2.093 0.714-3.729 0.073-1.638 0.092-2.16 0.092-6.332s-0.019-4.694-0.092-6.334c-0.077-1.634-0.336-2.751-0.714-3.727-0.386-1.025-0.991-1.953-1.772-2.721-0.767-0.782-1.695-1.387-2.721-1.772-0.979-0.38-2.097-0.639-3.73-0.714-1.64-0.073-2.16-0.092-6.334-0.092h0.004zM13.983 3.409h1.379c4.101 0 4.587 0.013 6.205 0.088 1.498 0.067 2.312 0.319 2.853 0.528 0.716 0.278 1.229 0.612 1.766 1.15s0.87 1.048 1.148 1.766c0.211 0.54 0.461 1.354 0.528 2.851 0.075 1.619 0.090 2.104 0.090 6.203s-0.015 4.587-0.090 6.205c-0.067 1.498-0.319 2.31-0.528 2.851-0.246 0.667-0.639 1.27-1.15 1.764-0.538 0.538-1.048 0.87-1.766 1.148-0.538 0.211-1.352 0.461-2.851 0.53-1.618 0.073-2.104 0.090-6.205 0.090s-4.589-0.017-6.207-0.090c-1.498-0.069-2.31-0.319-2.851-0.53-0.667-0.246-1.271-0.638-1.766-1.148-0.511-0.495-0.905-1.099-1.152-1.766-0.209-0.54-0.461-1.354-0.528-2.851-0.073-1.618-0.088-2.104-0.088-6.207 0-4.101 0.015-4.585 0.088-6.203 0.069-1.498 0.319-2.312 0.53-2.853 0.278-0.716 0.612-1.229 1.15-1.766s1.048-0.87 1.766-1.148c0.541-0.211 1.354-0.461 2.851-0.53 1.417-0.065 1.966-0.084 4.829-0.086v0.004zM23.559 5.959c-0.242 0-0.482 0.048-0.705 0.14s-0.427 0.228-0.598 0.4c-0.171 0.171-0.307 0.374-0.399 0.598s-0.14 0.463-0.14 0.705c0 0.242 0.048 0.482 0.14 0.705s0.228 0.427 0.399 0.598c0.171 0.171 0.374 0.307 0.598 0.4s0.463 0.14 0.705 0.14c0.489 0 0.958-0.194 1.303-0.54s0.54-0.814 0.54-1.303-0.194-0.958-0.54-1.303c-0.346-0.346-0.814-0.54-1.303-0.54zM15.361 8.113c-1.046-0.016-2.085 0.176-3.057 0.565s-1.855 0.968-2.601 1.702-1.338 1.609-1.742 2.574c-0.404 0.965-0.612 2.001-0.612 3.047s0.208 2.082 0.612 3.047c0.404 0.965 0.996 1.84 1.742 2.574s1.63 1.313 2.601 1.702c0.971 0.389 2.010 0.581 3.057 0.565 2.071-0.032 4.046-0.878 5.499-2.353s2.267-3.464 2.267-5.535-0.814-4.059-2.267-5.535c-1.453-1.476-3.428-2.321-5.499-2.353zM15.361 10.88c1.358 0 2.66 0.539 3.621 1.5s1.5 2.263 1.5 3.621-0.54 2.66-1.5 3.621c-0.96 0.96-2.263 1.5-3.621 1.5s-2.661-0.539-3.621-1.5c-0.96-0.96-1.5-2.263-1.5-3.621s0.539-2.66 1.5-3.621c0.96-0.96 2.263-1.5 3.621-1.5z"></path>
</symbol>
<symbol id="icon-sn-twitter" viewBox="0 0 37 32">
<path fill="#23a6f0" style="fill: var(--color1, #23a6f0)" d="M11.485 30.957c13.798 0 21.346-11.512 21.346-21.478 0-0.322 0-0.649-0.014-0.971 1.469-1.071 2.738-2.397 3.745-3.916-1.373 0.609-2.827 1.011-4.317 1.192 1.569-0.944 2.744-2.43 3.307-4.181-1.474 0.879-3.087 1.497-4.769 1.825-1.131-1.213-2.627-2.016-4.257-2.285s-3.303 0.010-4.759 0.794c-1.457 0.785-2.615 2.031-3.297 3.546s-0.848 3.214-0.474 4.834c-2.983-0.151-5.901-0.931-8.565-2.29s-5.014-3.267-6.899-5.6c-0.957 1.664-1.249 3.632-0.817 5.505s1.556 3.51 3.143 4.578c-1.189-0.041-2.353-0.362-3.396-0.939v0.104c0.002 1.743 0.602 3.432 1.698 4.781s2.621 2.276 4.317 2.624c-0.644 0.179-1.309 0.268-1.977 0.265-0.471 0.002-0.941-0.042-1.403-0.131 0.479 1.5 1.413 2.812 2.67 3.752s2.774 1.46 4.339 1.488c-2.659 2.103-5.943 3.243-9.323 3.238-0.596 0.003-1.191-0.032-1.782-0.104 3.431 2.203 7.416 3.372 11.485 3.371z"></path>
</symbol>
</defs>
</svg>
