<svg aria-hidden="true" style="position: absolute; width: 0; height: 0; overflow: hidden;" version="1.1" xmlns="http://www.w3.org/2000/svg" xmlns:xlink="http://www.w3.org/1999/xlink">
<defs>
<symbol id="icon-svg_server" viewBox="0 0 32 32">
<path fill="#f53838" style="fill: var(--color1, #f53838)" d="M26.24 4.543h-20.48c-0.679 0-1.33 0.27-1.81 0.75s-0.75 1.131-0.75 1.81v5.12c0 0.679 0.27 1.33 0.75 1.81s1.131 0.75 1.81 0.75h20.48c0.679 0 1.33-0.27 1.81-0.75s0.75-1.131 0.75-1.81v-5.12c0-0.679-0.27-1.33-0.75-1.81s-1.131-0.75-1.81-0.75zM19.84 9.663c0 0.707-0.573 1.28-1.28 1.28s-1.28-0.573-1.28-1.28c0-0.707 0.573-1.28 1.28-1.28s1.28 0.573 1.28 1.28zM24.96 9.663c0 0.707-0.573 1.28-1.28 1.28s-1.28-0.573-1.28-1.28c0-0.707 0.573-1.28 1.28-1.28s1.28 0.573 1.28 1.28zM26.24 17.343h-20.48c-0.679 0-1.33 0.27-1.81 0.75s-0.75 1.131-0.75 1.81v5.12c0 0.679 0.27 1.33 0.75 1.81s1.131 0.75 1.81 0.75h20.48c0.679 0 1.33-0.27 1.81-0.75s0.75-1.131 0.75-1.81v-5.12c0-0.679-0.27-1.33-0.75-1.81s-1.131-0.75-1.81-0.75zM19.84 22.463c0 0.707-0.573 1.28-1.28 1.28s-1.28-0.573-1.28-1.28c0-0.707 0.573-1.28 1.28-1.28s1.28 0.573 1.28 1.28zM24.96 22.463c0 0.707-0.573 1.28-1.28 1.28s-1.28-0.573-1.28-1.28c0-0.707 0.573-1.28 1.28-1.28s1.28 0.573 1.28 1.28z"></path>
</symbol>
<symbol id="icon-svg_location" viewBox="0 0 31 32">
<path fill="#f53838" style="fill: var(--color1, #f53838)" d="M24.32 12.223c0-1.177-0.232-2.342-0.682-3.429s-1.11-2.075-1.942-2.907c-0.832-0.832-1.82-1.492-2.907-1.942s-2.252-0.682-3.429-0.682c-1.177 0-2.342 0.232-3.429 0.682s-2.075 1.11-2.907 1.942c-0.832 0.832-1.492 1.82-1.942 2.907s-0.682 2.252-0.682 3.429c0 1.775 0.525 3.427 1.414 4.819h-0.010c3.021 4.73 7.556 11.821 7.556 11.821l7.556-11.821h-0.009c0.922-1.438 1.412-3.111 1.413-4.819zM15.36 16.063c-1.018 0-1.995-0.405-2.715-1.125s-1.125-1.697-1.125-2.715c0-1.018 0.405-1.995 1.125-2.715s1.697-1.125 2.715-1.125c1.018 0 1.995 0.405 2.715 1.125s1.125 1.697 1.125 2.715c0 1.018-0.405 1.995-1.125 2.715s-1.697 1.125-2.715 1.125z"></path>
</symbol>
<symbol id="icon-svg_user" viewBox="0 0 32 32">
<path fill="#f53838" style="fill: var(--color1, #f53838)" d="M16 14.527c1.222 0 2.394-0.486 3.258-1.35s1.35-2.036 1.35-3.258-0.485-2.394-1.35-3.258c-0.864-0.864-2.036-1.35-3.258-1.35s-2.394 0.486-3.258 1.35c-0.864 0.864-1.35 2.036-1.35 3.258s0.485 2.394 1.35 3.258c0.864 0.864 2.036 1.35 3.258 1.35zM9.47 28.351c-2.332 0-4.296-1.96-3.404-4.115 0.54-1.304 1.332-2.49 2.331-3.488s2.184-1.79 3.488-2.331c1.304-0.54 2.703-0.818 4.115-0.818s2.81 0.278 4.115 0.818c1.305 0.54 2.49 1.332 3.488 2.331s1.79 2.184 2.331 3.488c0.892 2.154-1.072 4.115-3.404 4.115h-13.059z"></path>
</symbol>
</defs>
</svg>
