<svg aria-hidden="true" style="position: absolute; width: 0; height: 0; overflow: hidden;" version="1.1" xmlns="http://www.w3.org/2000/svg" xmlns:xlink="http://www.w3.org/1999/xlink">
<defs>
<symbol id="icon-svg-facebook" viewBox="0 0 32 32">
<path fill="#f53838" style="fill: var(--color1, #f53838)" d="M27 16c0 6.627-5.373 12-12 12s-12-5.373-12-12c0-6.627 5.373-12 12-12s12 5.373 12 12z"></path>
<path fill="#fff" style="fill: var(--color2, #fff)" d="M16 0c-8.837 0-16 7.163-16 16s7.163 16 16 16c8.837 0 16-7.163 16-16s-7.163-16-16-16zM19.79 11.057h-2.405c-0.285 0-0.602 0.375-0.602 0.873v1.737h3.008l-0.455 2.477h-2.553v7.435h-2.838v-7.435h-2.575v-2.477h2.575v-1.457c0-2.090 1.45-3.788 3.44-3.788h2.405v2.635z"></path>
</symbol>
<symbol id="icon-svg-instagram" viewBox="0 0 32 32">
<path fill="#f53838" style="fill: var(--color1, #f53838)" d="M30.737 16c0 7.643-6.194 13.737-13.737 13.737s-13.737-6.094-13.737-13.737c0-7.643 6.194-13.737 13.737-13.737s13.737 6.094 13.737 13.737z"></path>
<path fill="#fff" style="fill: var(--color2, #fff)" d="M20.713 16c0 1.308-0.52 2.562-1.445 3.487s-2.179 1.445-3.487 1.445c-1.308 0-2.562-0.52-3.487-1.445s-1.444-2.179-1.444-3.487c0-0.281 0.030-0.556 0.081-0.822h-1.724v6.571c0 0.457 0.37 0.827 0.827 0.827h11.499c0.219-0 0.429-0.088 0.584-0.243s0.242-0.365 0.242-0.584v-6.571h-1.724c0.051 0.266 0.081 0.541 0.081 0.822zM15.781 19.288c0.432-0 0.859-0.085 1.258-0.251s0.761-0.408 1.067-0.713c0.305-0.305 0.547-0.668 0.713-1.067s0.25-0.827 0.25-1.259c-0-0.432-0.085-0.859-0.251-1.258s-0.408-0.761-0.713-1.067c-0.305-0.305-0.668-0.547-1.067-0.713s-0.827-0.25-1.259-0.25c-0.872 0-1.709 0.347-2.325 0.964s-0.963 1.454-0.963 2.326 0.347 1.709 0.964 2.325c0.617 0.617 1.454 0.963 2.326 0.963zM19.727 12.548h1.971c0.131 0 0.257-0.052 0.349-0.144s0.145-0.218 0.145-0.349v-1.971c0-0.131-0.052-0.257-0.145-0.35s-0.219-0.145-0.35-0.145h-1.971c-0.131 0-0.257 0.052-0.35 0.145s-0.145 0.219-0.145 0.35v1.971c0.002 0.271 0.224 0.493 0.495 0.493zM15.781 0.219c-4.186 0-8.2 1.663-11.159 4.622s-4.622 6.974-4.622 11.159 1.663 8.2 4.622 11.159c2.96 2.96 6.974 4.622 11.159 4.622 2.072 0 4.125-0.408 6.039-1.201s3.654-1.955 5.12-3.421c1.465-1.466 2.628-3.205 3.421-5.12s1.201-3.967 1.201-6.039-0.408-4.125-1.201-6.039c-0.793-1.915-1.955-3.654-3.421-5.12s-3.205-2.628-5.12-3.421c-1.915-0.793-3.967-1.201-6.039-1.201zM24.001 22.393c0 1.004-0.822 1.826-1.826 1.826h-12.786c-1.004 0-1.826-0.822-1.826-1.826v-12.786c0-1.004 0.822-1.826 1.826-1.826h12.786c1.004 0 1.826 0.822 1.826 1.826v12.786z"></path>
</symbol>
<symbol id="icon-svg-twitter" viewBox="0 0 32 32">
<circle cx="16" cy="16" r="15" fill="#f53838" stroke="none" stroke-width="10"/>
<path fill="#fff" style="fill: var(--color2, #fff)" d="M16 0c-8.837 0-16 7.163-16 16s7.163 16 16 16c8.837 0 16-7.163 16-16s-7.163-16-16-16zM22.508 13.107c0.007 0.137 0.008 0.273 0.008 0.407 0 4.167-3.168 8.968-8.965 8.968-1.713 0.003-3.39-0.489-4.83-1.417 0.245 0.030 0.497 0.042 0.752 0.042 1.477 0 2.835-0.502 3.913-1.348-0.657-0.013-1.294-0.23-1.822-0.622s-0.92-0.939-1.122-1.564c0.472 0.090 0.958 0.071 1.422-0.055-0.713-0.144-1.355-0.531-1.815-1.094s-0.713-1.268-0.713-1.996v-0.038c0.425 0.235 0.912 0.378 1.428 0.395-0.669-0.445-1.142-1.129-1.323-1.911s-0.057-1.605 0.348-2.299c0.792 0.973 1.779 1.77 2.898 2.337s2.344 0.894 3.597 0.958c-0.159-0.676-0.091-1.386 0.195-2.019s0.773-1.154 1.385-1.482c0.612-0.328 1.316-0.444 2.001-0.331s1.314 0.45 1.788 0.957c0.705-0.14 1.382-0.398 2-0.765-0.235 0.73-0.727 1.35-1.385 1.745 0.625-0.075 1.235-0.243 1.81-0.498-0.423 0.633-0.955 1.186-1.572 1.632z"></path>
</symbol>
</defs>
</svg>
