<?xml version="1.0"?>
<svg width="70" height="71" xmlns="http://www.w3.org/2000/svg" xmlns:svg="http://www.w3.org/2000/svg">
 <defs>
  <filter color-interpolation-filters="sRGB" filterUnits="userSpaceOnUse" height="69.6" id="filter0_d_1_127" width="69.6" x="0" y="0.58">
   <feFlood flood-opacity="0" result="BackgroundImageFix"/>
   <feColorMatrix in="SourceAlpha" result="hardAlpha" type="matrix" values="0 0 0 0 0 0 0 0 0 0 0 0 0 0 0 0 0 0 127 0"/>
   <feOffset dy="13"/>
   <feGaussianBlur stdDeviation="9"/>
   <feColorMatrix type="matrix" values="0 0 0 0 0.0658854 0 0 0 0 0.0730469 0 0 0 0 0.1375 0 0 0 0.08 0"/>
   <feBlend in2="BackgroundImageFix"/>
   <feBlend in="SourceGraphic" in2="effect1_dropShadow_1_127"/>
  </filter>
 </defs>
 <g class="layer">
  <title>Layer 1</title>
  <g id="Socmed/Facebook">
   <g filter="url(#filter0_d_1_127)" id="Ellipse 176" transform="matrix(1 0 0 1 0 0)">
    <circle cx="33.05" cy="20.76" fill="#F53838" id="svg_1" r="15.3"/>
   </g>
   <path d="m33.3,3.33c-9.28,0 -16.8,7.52 -16.8,16.8c0,9.28 7.52,16.8 16.8,16.8c9.28,0 16.8,-7.52 16.8,-16.8c0,-2.32 -0.47,-4.53 -1.32,-6.54c-0.85,-2.01 -2.08,-3.82 -3.6,-5.34c-1.52,-1.52 -3.33,-2.75 -5.34,-3.6c-2.01,-0.85 -4.22,-1.32 -6.54,-1.32zm3.98,11.61l-2.53,0c-0.3,0 -0.63,0.39 -0.63,0.92l0,1.82l3.16,0l-0.48,2.6l-2.68,0l0,7.81l-2.98,0l0,-7.81l-2.7,0l0,-2.6l2.7,0l0,-1.53c0,-2.19 1.52,-3.98 3.61,-3.98l2.53,0l0,2.77z" fill="white" id="Vector"/>
  </g>
 </g>
</svg>