<svg width="104.000000" height="62.000000" viewBox="0 0 104 62" fill="none" xmlns="http://www.w3.org/2000/svg">
	<desc>
			Created with Pixso.
	</desc>
	<defs>
		<clipPath id="clip3007_11378">
			<rect id="fa-brands-5" width="104.000000" height="62.000000" fill="white" fill-opacity="0"/>
		</clipPath>
	</defs>
	<rect id="fa-brands-5" width="104.000000" height="62.000000" fill="#FFFFFF" fill-opacity="0"/>
	<g clip-path="url(#clip3007_11378)">
		<path id="Vector" d="M29.3872 22.4886C29.2705 26.1268 31.1045 27.7378 31.1497 28.761C31.1282 28.9692 31.0566 29.1693 30.9409 29.3445C30.8254 29.5198 30.6692 29.6649 30.4856 29.7681L28.4121 31.2073C28.1438 31.3938 27.8274 31.5007 27.5 31.5156C27.4304 31.5125 26.1733 31.8096 24.1824 27.4021C22.9678 28.9055 21.4224 30.1133 19.6643 30.9332C17.9062 31.7532 15.9824 32.1633 14.04 32.1324C11.4026 32.2754 4.25562 30.6483 4.62329 23.1039C4.36572 16.9553 10.1409 13.1357 16.1135 13.4585C17.2637 13.4618 19.6125 13.5179 23.7256 14.4657L23.7256 11.9568C24.1614 7.70667 21.3442 4.40906 16.4666 4.90381C16.0779 4.9054 13.324 4.82349 9.04077 6.52771C7.84863 7.07056 7.69629 6.98071 7.29932 6.98071C6.09912 6.98071 6.59302 3.53052 6.82324 3.09363C7.66724 2.06567 12.6323 0.14624 17.5049 0.173462C20.7632 -0.112183 24.0037 0.884888 26.5264 2.9491C27.552 4.08643 28.3342 5.41797 28.8262 6.86353C29.3181 8.30896 29.5095 9.83838 29.3889 11.3593L29.3872 22.4886ZM15.3877 27.6913C20.6411 27.6157 22.8655 24.4836 23.3723 22.7971C23.771 21.1829 23.7046 20.1613 23.7046 18.396C22.1379 18.0234 19.8831 17.6171 17.2961 17.6138C14.8418 17.4307 10.3594 18.5181 10.5344 22.7955C10.3335 25.4923 12.3357 27.839 15.3877 27.6913ZM43.0757 31.3936C41.8025 31.5093 41.2095 30.6129 41.0217 29.7279L32.9543 3.28149C32.7971 2.83496 32.6936 2.37402 32.6433 1.90344C32.6135 1.70935 32.6626 1.5116 32.78 1.35352C32.8972 1.19531 33.073 1.08984 33.2686 1.06018C33.3074 1.05371 32.9236 1.06018 36.873 1.06018C38.2952 0.918823 38.7585 2.02869 38.906 2.72583L44.6924 25.3462L50.0642 2.72583C50.1499 2.20862 50.5403 0.947754 52.1377 1.08105L54.9175 1.08105C55.269 1.05212 56.7173 1.00073 56.9714 2.7467L62.3853 25.6561L68.3582 2.7467C68.4358 2.39648 68.7986 0.92041 70.4121 1.08105L73.6067 1.08105C73.7444 1.06018 74.603 0.950928 74.457 2.45911C74.3875 2.75635 75.0095 0.746948 65.9119 29.7488C65.7256 30.6338 65.1311 31.5302 63.8579 31.4144L60.8303 31.4144C59.0581 31.5991 58.8037 29.8628 58.7761 29.6877L53.4045 7.66174L48.0942 29.6653C48.0684 29.8403 47.814 31.5767 46.0403 31.392L43.0757 31.392L43.0757 31.3936ZM87.3777 32.2979C86.4253 32.2994 81.8828 32.2496 78.0857 30.3239C77.7075 30.165 77.3855 29.8984 77.1602 29.5579C76.9348 29.2173 76.8167 28.8181 76.8206 28.4108L76.8206 26.6841C76.8206 25.3269 77.825 25.5758 78.251 25.738C79.8774 26.3901 80.9207 26.8849 82.918 27.28C88.8552 28.4895 91.4666 26.9106 92.1064 26.5604C94.2366 25.306 94.405 22.4357 92.9568 20.9468C91.259 19.5349 90.4492 19.4818 84.3501 17.5737C83.5984 17.3665 77.271 15.3876 77.2563 9.16357C77.1575 4.62756 81.3145 0.139771 88.5183 0.176758C90.5706 0.175171 96.0396 0.840088 97.5203 2.68567C97.7388 3.02136 97.8474 3.4165 97.8313 3.81641L97.8313 5.44031C97.8313 6.15344 97.5688 6.51001 97.0422 6.51001C95.7932 6.37195 93.5771 4.71594 89.0786 4.78333C87.9626 4.72559 82.6167 4.92957 82.8564 8.79407C82.7869 11.8395 87.1672 12.9814 87.6677 13.1132C93.574 14.8752 95.5488 15.1676 97.8928 17.8644C100.669 21.4382 99.1726 25.6224 98.5974 26.7693C95.5066 32.791 87.5139 32.301 87.3777 32.2979ZM93.8899 49.1406C82.5454 57.448 66.0771 61.87 52.0161 61.87C33.0435 61.994 14.7102 55.0768 0.620361 42.478C-0.4375 41.532 0.495605 40.2358 1.78198 40.957C17.4119 49.8219 35.1082 54.4799 53.1145 54.4685C66.561 54.397 79.8611 51.6923 92.2505 46.5096C94.1589 45.7065 95.7771 47.7626 93.8899 49.1406ZM98.6184 43.7936C97.167 41.9432 89.0156 42.9294 85.3657 43.3615C84.2659 43.4852 84.0796 42.5391 85.0759 41.8405C91.5669 37.3157 102.228 38.6119 103.452 40.1331C104.676 41.6541 103.12 52.2455 97.0439 57.3051C96.1108 58.0873 95.2183 57.6746 95.6331 56.6465C97.0002 53.2333 100.07 45.6455 98.6184 43.7936Z" fill="#737373" fill-opacity="1.000000" fill-rule="nonzero"/>
	</g>
</svg>
