<svg width="103.000000" height="34.000000" viewBox="0 0 103 34" fill="none" xmlns="http://www.w3.org/2000/svg">
	<desc>
			Created with Pixso.
	</desc>
	<defs>
		<clipPath id="clip3007_11366">
			<rect id="fa-brands-1" width="103.000000" height="34.000000" fill="white" fill-opacity="0"/>
		</clipPath>
	</defs>
	<rect id="fa-brands-1" width="103.000000" height="34.000000" fill="#FFFFFF" fill-opacity="0"/>
	<g clip-path="url(#clip3007_11366)">
		<path id="Vector" d="M23.2554 31.9249L29.4193 32.0526C27.2949 31.3184 25.2349 30.4244 23.2554 29.3708L23.2554 31.9249ZM32.5414 31.0789L32.5414 31.9249L29.4193 32.0526C35.2935 34.0479 40.6688 34.3192 44.66 33.2019C41.4574 33.2338 37.2891 32.7869 32.5414 31.0789ZM98.3488 12.6902C100.908 12.6902 103 10.631 103 8.07703C103 5.52307 100.924 4.16626 98.3488 4.16626C95.7899 4.16626 93.6976 5.53894 93.6976 8.07703C93.6976 10.615 95.7738 12.6902 98.3488 12.6902ZM93.6816 31.9249L103 31.9249L103 14.2864L93.6816 14.2864L93.6816 31.9249ZM81.8206 31.9249L91.1388 31.9249L91.1388 0.750244L81.8206 5.10803L81.8206 31.9249ZM76.8314 12.8657C73.9023 9.96057 68.7202 10.1361 68.7202 10.1361C68.7202 10.1361 63.5219 9.96057 60.6089 12.8657C57.6799 15.7709 57.9052 18.277 57.9052 21.262C57.9052 24.2469 57.6799 26.7371 60.6089 29.6422C63.538 32.5474 68.7202 32.3718 68.7202 32.3718C68.7202 32.3718 73.9185 32.5474 76.8314 29.6422C79.7605 26.7371 79.5352 24.2469 79.5352 21.262C79.519 18.261 79.7444 15.7549 76.8314 12.8657ZM70.4261 24.3428C70.4261 24.9174 70.1365 26.338 68.7041 26.338C67.2717 26.338 66.9821 24.9174 66.9821 24.3428L66.9821 17.8939C66.9821 16.5051 68.1569 16.1541 68.7041 16.1541C69.2512 16.1541 70.4261 16.4893 70.4261 17.8939L70.4261 24.3428ZM53.3346 12.8657C50.4055 9.96057 45.2233 10.1361 45.2233 10.1361C45.2233 10.1361 40.0411 9.96057 37.1121 12.8657C36.8063 13.1691 36.5166 13.4883 36.2592 13.8235C30.1113 9.09863 24.5912 6.401 19.8274 4.07043L19.8274 0.766235L16.2063 2.45825C7.45129 -1.06946 1.88281 -0.446899 0.547119 2.47424C0.547119 2.47424 -3.46033 7.70984 10.493 20.1605L10.493 31.9249L19.8113 31.9249L19.8113 27.3596C18.7651 26.6892 17.7191 25.9709 16.6891 25.1887C14.3073 23.401 12.2794 21.7408 10.5092 20.1765L10.5092 15.2281C12.6174 17.5747 15.4177 20.2404 19.1031 23.2573L19.8274 23.8319L19.8274 19.0751C19.8274 17.9738 20.101 16.1699 21.5656 16.1699C23.03 16.1699 23.2715 17.2714 23.2715 18.5643L23.2715 26.338C26.1683 28.2854 29.2744 29.8657 32.5575 31.0629L32.5575 16.0742C32.5575 13.0892 30.401 10.1042 26.0234 10.1042C23.4807 10.0883 21.1149 11.4132 19.8274 13.6L19.8274 4.93237C26.5707 8.26855 33.3301 12.355 35.905 14.2385C34.2634 16.569 34.4083 18.724 34.4083 21.2141C34.4083 24.1991 34.183 26.6892 37.1121 29.5944C40.0411 32.4995 45.2233 32.324 45.2233 32.324C45.2233 32.324 50.4216 32.4995 53.3346 29.5944C56.2637 26.6892 56.0222 24.1991 56.0222 21.2141C56.0222 18.261 56.2637 15.7549 53.3346 12.8657ZM10.493 5.10803L10.493 15.2122C2.6554 6.5127 4.23254 3.08081 4.828 2.58594C7.00061 0.766235 10.8632 1.30896 15.1924 2.92114L10.493 5.10803ZM46.9453 24.3428C46.9453 24.9174 46.6556 26.338 45.2233 26.338C43.791 26.338 43.5012 24.9174 43.5012 24.3428L43.5012 17.8939C43.5012 16.5051 44.6761 16.1541 45.2233 16.1541C45.7705 16.1541 46.9453 16.4893 46.9453 17.8939L46.9453 24.3428Z" fill="#737373" fill-opacity="1.000000" fill-rule="nonzero"/>
	</g>
</svg>
