<svg width="83.000000" height="59.000000" viewBox="0 0 83 59" fill="none" xmlns="http://www.w3.org/2000/svg">
	<desc>
			Created with Pixso.
	</desc>
	<defs>
		<clipPath id="clip3007_11369">
			<rect id="fa-brands-2" width="83.000000" height="59.000000" fill="white" fill-opacity="0"/>
		</clipPath>
	</defs>
	<rect id="fa-brands-2" width="83.000000" height="59.000000" fill="#FFFFFF" fill-opacity="0"/>
	<g clip-path="url(#clip3007_11369)">
		<path id="Vector" d="M0 0.995239L12.6121 0.995239L12.6121 35.0099C12.6121 40.4047 15.0437 43.6154 17.0215 44.9519C14.9626 46.761 8.72144 48.3583 4.02026 44.4955C1.2644 42.2137 0 38.4163 0 34.8795L0 0.995239ZM78.7689 29.2728L78.7689 25.6873L82.6272 25.6873L82.6272 13.17L78.3961 13.17C76.7588 5.62402 70.0961 0.017334 62.1365 0.017334C52.9612 0.017334 45.4879 7.51453 45.4879 16.7557L45.4879 45.9624C48.0817 46.3372 51.2266 45.9135 53.8689 43.6805C56.641 41.3988 57.8893 37.6176 57.8893 34.0646L57.8893 32.9725L64.1791 32.9725L64.1791 20.4554L57.8893 20.4554L57.8893 16.658C57.8893 11.0187 66.3513 11.0187 66.3513 16.658L66.3513 29.224C66.3513 38.4489 73.8083 45.9624 83 45.9624L83 33.4941C80.6494 33.4941 78.7689 31.5873 78.7689 29.2728ZM31.0602 13.1375L31.0602 31.5547C31.0602 34.0646 27.2019 34.0646 27.2019 31.5547L27.2019 13.1375L14.752 13.1375L14.752 34.7654C14.752 38.6444 16.0488 43.5665 22.0469 45.1801C28.0449 46.7772 31.4817 43.4524 31.4817 43.4524C31.1412 45.6364 29.1311 47.2499 25.824 47.5759C23.3113 47.8367 20.1178 46.9891 18.5291 46.3047L18.5291 57.7623C22.598 58.9847 26.8777 59.3596 31.1088 58.5283C38.7441 57.0453 43.5588 50.64 43.5588 42.0996L43.5588 13.056L31.0602 13.056L31.0602 13.1375Z" fill="#737373" fill-opacity="1.000000" fill-rule="nonzero"/>
	</g>
</svg>
