<svg width="76.000000" height="72.000000" viewBox="0 0 76 72" fill="none" xmlns="http://www.w3.org/2000/svg">
	<desc>
			Created with Pixso.
	</desc>
	<defs>
		<clipPath id="clip3007_11381">
			<rect id="fa-brands-6" width="76.000000" height="72.000000" fill="white" fill-opacity="0"/>
		</clipPath>
	</defs>
	<rect id="fa-brands-6" width="76.000000" height="72.000000" fill="#FFFFFF" fill-opacity="0"/>
	<g clip-path="url(#clip3007_11381)">
		<path id="Vector" d="M67.426 27.6614C65.031 27.6614 62.9233 28.6556 61.3748 30.2111C55.6748 26.2502 47.9949 23.7007 39.4849 23.428L43.9075 3.41553L57.9897 6.59058C57.9897 10.0543 60.7998 12.8766 64.2485 12.8766C67.7612 12.8766 70.5874 9.97412 70.5874 6.51038C70.5874 3.04675 67.7773 0.144287 64.2485 0.144287C61.7898 0.144287 59.6663 1.63562 58.6125 3.67212L43.0613 0.208374C42.2788 0 41.5125 0.561157 41.3049 1.34692L36.4512 23.412C28.0049 23.7648 20.405 26.3145 14.689 30.2753C13.1401 28.6556 10.9529 27.6614 8.55786 27.6614C-0.319336 27.6614 -3.22534 39.624 4.90161 43.7131C4.61426 44.9799 4.48657 46.3269 4.48657 47.674C4.48657 61.1118 19.5588 72 38.0637 72C56.6487 72 71.7209 61.1118 71.7209 47.674C71.7209 46.3269 71.5771 44.9158 71.2261 43.6489C79.1931 39.5438 76.2554 27.6614 67.426 27.6614ZM17.7864 44.563C17.7864 41.0352 20.5967 38.1969 24.1252 38.1969C27.574 38.1969 30.384 41.0192 30.384 44.563C30.384 48.0267 27.574 50.849 24.1252 50.849C20.6125 50.865 17.7864 48.0267 17.7864 44.563ZM52.0024 59.5563C46.1907 65.3933 29.7932 65.3933 23.9814 59.5563C23.3428 58.9951 23.3428 58.0009 23.9814 57.3594C24.5403 56.7982 25.5303 56.7982 26.0891 57.3594C30.5276 61.9296 45.2485 62.0098 49.8789 57.3594C50.4377 56.7982 51.4277 56.7982 51.9866 57.3594C52.6411 58.0009 52.6411 58.9951 52.0024 59.5563ZM51.8748 50.865C48.426 50.865 45.616 48.0427 45.616 44.579C45.616 41.0511 48.426 38.2129 51.8748 38.2129C55.3872 38.2129 58.2134 41.0352 58.2134 44.579C58.1975 48.0267 55.3872 50.865 51.8748 50.865Z" fill="#737373" fill-opacity="1.000000" fill-rule="nonzero"/>
	</g>
</svg>
