<svg width="103.000000" height="42.000000" viewBox="0 0 103 42" fill="none" xmlns="http://www.w3.org/2000/svg">
	<desc>
			Created with Pixso.
	</desc>
	<defs>
		<clipPath id="clip3007_11375">
			<rect id="fa-brands-4" width="103.000000" height="42.000000" fill="white" fill-opacity="0"/>
		</clipPath>
	</defs>
	<rect id="fa-brands-4" width="103.000000" height="42.000000" fill="#FFFFFF" fill-opacity="0"/>
	<g clip-path="url(#clip3007_11375)">
		<path id="Vector" d="M26.5554 3.29321L19.5869 4.75684L19.5547 27.4114C19.5547 31.5955 22.7412 34.3 26.9739 34.3C29.3235 34.3 31.0457 33.8705 31.9951 33.3613L31.9951 27.9841C31.0779 28.35 26.5715 29.6545 26.5715 25.4863L26.5715 15.4318L31.9951 15.4318L31.9951 9.41821L26.5715 9.41821L26.5554 3.29321ZM40.895 11.5023L40.4604 9.41821L34.2805 9.41821L34.2805 33.7909L41.4099 33.7909L41.4099 17.3887C43.0999 15.1932 45.9485 15.6227 46.8657 15.9091L46.8657 9.41821C45.9001 9.08411 42.5686 8.46362 40.895 11.5023ZM55.7495 0L48.5718 1.51135L48.5718 7.27051L55.7495 5.75903L55.7495 0ZM7.22681 16.5931C7.22681 15.4955 8.1604 15.0659 9.65698 15.05C11.8296 15.05 14.5979 15.7023 16.7705 16.8636L16.7705 10.2136C14.4045 9.29089 12.0388 8.92505 9.6731 8.92505C3.87939 8.92505 0.0168457 11.9159 0.0168457 16.9114C0.0168457 24.7386 10.8801 23.4659 10.8801 26.8386C10.8801 28.1432 9.73755 28.5728 8.14429 28.5728C5.77832 28.5728 2.7207 27.6023 0.32251 26.3136L0.32251 32.6772C2.97803 33.8068 5.66577 34.2841 8.12817 34.2841C14.0667 34.2841 18.1545 31.7705 18.1545 26.6796C18.1545 18.2637 7.22681 19.775 7.22681 16.5931ZM103.001 21.8909C103.001 14.6522 99.4602 8.94092 92.6685 8.94092C85.877 8.94092 81.741 14.6522 81.741 21.8431C81.741 30.3545 86.6174 34.2841 93.5698 34.2841C96.9817 34.2841 99.5405 33.5205 101.488 32.4546L101.488 27.1409C99.5405 28.1113 97.3035 28.7 94.4712 28.7C91.6868 28.7 89.2407 27.7295 88.9187 24.4204L102.904 24.4204C102.936 24.0546 103.001 22.575 103.001 21.8909ZM88.8542 19.2181C88.8542 16.0364 90.834 14.7 92.6204 14.7C94.3745 14.7 96.2415 16.0364 96.2415 19.2181L88.8542 19.2181ZM70.6846 8.94092C67.8843 8.94092 66.0818 10.2455 65.084 11.1522L64.7136 9.40222L58.4211 9.40222L58.4211 41.9841L65.5667 40.4886L65.5828 32.5023C66.6128 33.25 68.1416 34.2841 70.6362 34.2841C75.7539 34.2841 80.4211 30.5931 80.4211 21.6205C80.4373 13.4114 75.7058 8.94092 70.6846 8.94092ZM68.9785 28.4296C67.3049 28.4296 66.3071 27.825 65.615 27.0931L65.5667 16.5931C66.3071 15.7819 67.3369 15.1932 68.9785 15.1932C71.5857 15.1932 73.3882 18.0886 73.3882 21.7795C73.4043 25.5818 71.634 28.4296 68.9785 28.4296ZM48.5879 33.7909L55.7656 33.7909L55.7656 9.41821L48.5879 9.41821L48.5879 33.7909Z" fill="#737373" fill-opacity="1.000000" fill-rule="nonzero"/>
	</g>
</svg>
