<svg width="102.000000" height="75.000000" viewBox="0 0 102 75" fill="none" xmlns="http://www.w3.org/2000/svg">
	<desc>
			Created with Pixso.
	</desc>
	<defs>
		<clipPath id="clip3007_11372">
			<rect id="fa-brands-3" width="102.000000" height="75.000000" fill="white" fill-opacity="0"/>
		</clipPath>
	</defs>
	<rect id="fa-brands-3" width="102.000000" height="75.000000" fill="#FFFFFF" fill-opacity="0"/>
	<g clip-path="url(#clip3007_11372)">
		<path id="Vector" d="M102 0.145752C89.1226 8.82825 87.752 15.1295 86.6362 17.0573C85.5684 19.0334 84.7715 26.8251 82.9229 30.5994C81.0581 34.4222 74.2847 37.4352 72.3882 38.6986C70.5234 39.9622 67.8778 44.8704 65.7103 49.0983C48.4819 48.3855 39.0309 55.3833 24.4003 64.2603C29.0859 62.689 31.3013 61.5551 31.3013 61.5551C46.3143 55.7235 53.5022 50.4913 76.1016 53.5853C76.2769 53.5853 76.4043 53.6825 76.5479 53.7148C77.1694 54.0713 77.3926 54.8325 77.042 55.4644L68.4515 70.9827C68.0531 71.744 67.2085 72.1489 66.3638 71.9708C46.155 68.1155 30.2015 74.7732 15.5391 74.9838C3.84094 75.162 0 69.5573 0 69.298C0 69.1199 0.0955811 69.0227 0.270996 69.0227C0.270996 69.0227 6.375 69.0226 16.7025 66.5442C28.4325 43.8175 38.8875 35.8639 50.2668 35.8639C50.2668 35.8639 61.6941 35.8639 64.7063 45.8909C68.34 39.46 69.2166 37.9211 69.2166 37.9211C70.0613 36.3984 74.7947 25.4158 82.9866 15.0161C91.1943 4.64905 97.394 2.07336 102 0.145752Z" fill="#737373" fill-opacity="1.000000" fill-rule="nonzero"/>
	</g>
</svg>
