<svg width="24.000000" height="24.000000" viewBox="0 0 24 24" fill="none" xmlns="http://www.w3.org/2000/svg">
	<desc>
			Created with Pixso.
	</desc>
	<defs>
		<linearGradient id="paint_linear_22_22126_0" x1="15.698179" y1="15.486370" x2="4.129091" y2="5.479199" gradientUnits="userSpaceOnUse">
			<stop stop-color="#535FE6" stop-opacity="0.839216"/>
			<stop offset="1.000000" stop-color="#20C1CF" stop-opacity="0.568627"/>
		</linearGradient>
	</defs>
<!--	<rect id="24px / home" width="24.000000" height="24.000000" fill="#FFFFFF" fill-opacity="0"/>-->
	<path id="Subtract" d="M3.16602 9.74438C2.98828 10.92 2.78125 14.0499 3.55078 17.5728C3.97656 19.5157 5.08008 20.4072 7.40625 20.7041C7.55078 20.7224 7.69336 20.7397 7.83594 20.7563C8.05664 20.7821 8.25 20.6079 8.25 20.3849L8.25 15.0856C8.25 13.8402 9.25781 12.8306 10.5 12.8306L13.5 12.8306C14.7422 12.8306 15.75 13.8402 15.75 15.0856L15.75 20.3912C15.75 20.6138 15.9414 20.7878 16.1621 20.7629C16.3281 20.7444 16.4941 20.7247 16.6602 20.7041C18.9883 20.4133 20.1289 19.5298 20.5156 17.5728C21.1934 14.1294 20.9883 11.0591 20.9062 9.82678C20.9043 9.79834 20.9023 9.77087 20.9004 9.74438C20.8457 8.90527 16.334 5.46252 13.7676 3.56946C12.7344 2.80713 11.334 2.81067 10.3047 3.57739C7.75977 5.47156 3.29297 8.90479 3.16602 9.74438ZM10.1016 20.949C9.9043 20.9384 9.75 20.7739 9.75 20.5756L9.75 15.0856C9.75 14.6704 10.0859 14.3339 10.5 14.3339L13.5 14.3339C13.9141 14.3339 14.25 14.6704 14.25 15.0856L14.25 20.5768C14.25 20.7754 14.0957 20.9399 13.8984 20.9503C12.623 21.017 11.3652 21.0166 10.1016 20.949Z" fill="url(#paint_linear_22_22126_0)" fill-opacity="1.000000" fill-rule="evenodd"/>
</svg>