<svg width="24.000000" height="24.000000" viewBox="0 0 24 24" fill="none" xmlns="http://www.w3.org/2000/svg">
	<desc>
			Created with Pixso.
	</desc>
	<defs>
		<linearGradient id="paint_linear_22_22116_0" x1="16.109097" y1="15.873742" x2="3.254545" y2="4.754664" gradientUnits="userSpaceOnUse">
			<stop stop-color="#535FE6" stop-opacity="0.839216"/>
			<stop offset="1.000000" stop-color="#20C1CF" stop-opacity="0.568627"/>
		</linearGradient>
	</defs>
	<rect width="24.000000" height="24.000000" fill="#FFFFFF" fill-opacity="0"/>
	<path d="M2 12C2 20.235 3.76562 22 12 22C20.2344 22 22 20.235 22 12C22 3.76501 20.2344 2 12 2C3.76562 2 2 3.76501 2 12ZM7.83398 12C7.83398 11.5398 8.20703 11.1666 8.66602 11.1666L11.166 11.1666L11.166 8.66663C11.166 8.20642 11.5391 7.83337 12 7.83337C12.4609 7.83337 12.834 8.20642 12.834 8.66663L12.834 11.1666L15.334 11.1666C15.793 11.1666 16.166 11.5398 16.166 12C16.166 12.4602 15.793 12.8334 15.334 12.8334L12.834 12.8334L12.834 15.3334C12.834 15.7936 12.4609 16.1666 12 16.1666C11.5391 16.1666 11.166 15.7936 11.166 15.3334L11.166 12.8334L8.66602 12.8334C8.20703 12.8334 7.83398 12.4602 7.83398 12Z" fill="url(#paint_linear_22_22116_0)" fill-opacity="1.000000" fill-rule="evenodd"/>
</svg>
