<svg width="24.000000" height="24.000000" viewBox="0 0 24 24" fill="none" xmlns="http://www.w3.org/2000/svg">
	<desc>
			Created with Pixso.
	</desc>
	<defs>
		<linearGradient id="paint_linear_22_22150_0" x1="15.640006" y1="15.486369" x2="5.035001" y2="5.479198" gradientUnits="userSpaceOnUse">
			<stop stop-color="#535FE6" stop-opacity="0.839216"/>
			<stop offset="1.000000" stop-color="#20C1CF" stop-opacity="0.568627"/>
		</linearGradient>
	</defs>
	<rect width="24.000000" height="24.000000" fill="#FFFFFF" fill-opacity="0"/>
	<path d="M10.0215 4.81982C10.4805 2.39343 14.0195 2.39343 14.4785 4.81982C14.7344 6.16431 16.1504 6.96765 17.4629 6.5127C19.832 5.69153 21.5996 8.7019 19.6914 10.3071C18.6348 11.1967 18.6348 12.8033 19.6914 13.6929C21.5996 15.2981 19.832 18.3085 17.4629 17.4873C16.1504 17.0323 14.7344 17.8357 14.4785 19.1802C14.0195 21.6066 10.4805 21.6066 10.0215 19.1802C9.76562 17.8357 8.34961 17.0323 7.03711 17.4873C4.66797 18.3085 2.90039 15.2981 4.80859 13.6929C5.86523 12.8033 5.86523 11.1967 4.80859 10.3071C2.90039 8.7019 4.66797 5.69153 7.03711 6.5127C8.34961 6.96765 9.76562 6.16431 10.0215 4.81982ZM12.25 15C10.5938 15 9.25 13.6569 9.25 12C9.25 10.3431 10.5938 9 12.25 9C13.9062 9 15.25 10.3431 15.25 12C15.25 13.6569 13.9062 15 12.25 15ZM12.25 13.5C11.4219 13.5 10.75 12.8284 10.75 12C10.75 11.1716 11.4219 10.5 12.25 10.5C13.0781 10.5 13.75 11.1716 13.75 12C13.75 12.8284 13.0781 13.5 12.25 13.5Z" fill="url(#paint_linear_22_22150_0)" fill-opacity="1.000000" fill-rule="evenodd"/>
</svg>
