<svg width="24.000000" height="24.000000" viewBox="0 0 24 24" fill="none" xmlns="http://www.w3.org/2000/svg">
	<desc>
			Created with Pixso.
	</desc>
	<defs>
		<linearGradient id="paint_linear_22_22142_0" x1="15.687927" y1="15.486371" x2="4.128181" y2="5.479197" gradientUnits="userSpaceOnUse">
			<stop stop-color="#535FE6" stop-opacity="0.839216"/>
			<stop offset="1.000000" stop-color="#20C1CF" stop-opacity="0.568627"/>
		</linearGradient>
	</defs>
	<rect width="24.000000" height="24.000000" fill="#FFFFFF" fill-opacity="0"/>
	<path d="M20.9863 10.2526C20.9902 10.4091 20.7754 10.469 20.6914 10.3364C20.2754 9.672 19.7871 9.06482 19.2441 8.51416C16.9883 6.22827 13.8184 4.96838 10.793 4.55383C10.0762 4.45581 9.36133 4.40393 8.6582 4.39844C8.54102 4.39746 8.4707 4.26746 8.54688 4.17712C8.77344 3.91333 9.0957 3.67932 9.55664 3.50354C11.2422 2.86218 18.1641 2.55762 19.8496 4.32166C20.5938 5.10022 20.9043 7.58203 20.9863 10.2526ZM20.6289 18.1536C20.6816 17.8915 20.7383 17.4626 20.791 16.9143C20.9785 13.7012 19.8848 11.2985 18.1758 9.56775C16.2109 7.57642 13.3789 6.42224 10.5898 6.03992C9.48633 5.88892 8.41406 5.86121 7.42578 5.94177C3.31055 6.46582 2.54492 8.31665 3.21289 13.3838C4.04102 19.6558 5.76172 21 12.9648 21C17.9238 21 19.9688 20.6107 20.5938 18.1506C20.5977 18.1406 20.6133 18.1414 20.6133 18.1519C20.6133 18.1622 20.627 18.1638 20.6289 18.1536ZM6.75 13.5C6.75 13.0858 7.08594 12.75 7.5 12.75L10.5 12.75C10.9141 12.75 11.25 13.0858 11.25 13.5C11.25 13.9142 10.9141 14.25 10.5 14.25L7.5 14.25C7.08594 14.25 6.75 13.9142 6.75 13.5ZM13.5 15.75C13.9141 15.75 14.25 16.0858 14.25 16.5C14.25 16.9142 13.9141 17.25 13.5 17.25L7.5 17.25C7.08594 17.25 6.75 16.9142 6.75 16.5C6.75 16.0858 7.08594 15.75 7.5 15.75L13.5 15.75Z" fill="url(#paint_linear_22_22142_0)" fill-opacity="1.000000" fill-rule="evenodd"/>
</svg>
