<svg width="24.000000" height="24.000000" viewBox="0 0 24 24" fill="none" xmlns="http://www.w3.org/2000/svg">
	<desc>
			Created with Pixso.
	</desc>
	<defs/>
	<rect width="24.000000" height="24.000000" fill="#FFFFFF" fill-opacity="0"/>
	<path d="M12 21C4.5885 21 3 19.4115 3 12C3 4.5885 4.5885 3 12 3C19.4115 3 21 4.5885 21 12C21 19.4115 19.4115 21 12 21ZM15.5303 12.9697L12.5303 9.96973C12.2374 9.67676 11.7626 9.67676 11.4697 9.96973L8.46973 12.9697C8.17676 13.2626 8.17676 13.7374 8.46973 14.0303C8.76257 14.3232 9.23743 14.3232 9.53027 14.0303L12 11.5607L14.4697 14.0303C14.7626 14.3232 15.2374 14.3232 15.5303 14.0303C15.8232 13.7374 15.8232 13.2626 15.5303 12.9697Z" fill="#FFFFFF" fill-opacity="1.000000" fill-rule="evenodd"/>
</svg>
