<svg width="24.000000" height="24.000000" viewBox="0 0 24 24" fill="none" xmlns="http://www.w3.org/2000/svg">
	<defs/>
	<rect width="24.000000" height="24.000000" fill="#FFFFFF" fill-opacity="0"/>
	<path d="M3.16602 9.74438C2.98889 10.92 2.78052 14.0499 3.55139 17.5728C3.97656 19.5157 5.07947 20.4072 7.40662 20.7041C7.55005 20.7224 7.69324 20.7397 7.83618 20.7563C8.05725 20.7821 8.25 20.6079 8.25 20.3849L8.25 15.0856C8.25 13.8402 9.25732 12.8306 10.5 12.8306L13.5 12.8306C14.7427 12.8306 15.75 13.8402 15.75 15.0856L15.75 20.3912C15.75 20.6138 15.9419 20.7878 16.1626 20.7629C16.3279 20.7444 16.4934 20.7247 16.6594 20.7041C18.9874 20.4133 20.1295 19.5298 20.5148 17.5728C21.1927 14.1294 20.9882 11.0591 20.906 9.82678C20.9042 9.79834 20.9023 9.77087 20.9005 9.74438C20.845 8.90527 16.3333 5.46252 13.7677 3.56946C12.7347 2.80713 11.3344 2.81067 10.3046 3.57739C7.7605 5.47156 3.29248 8.90479 3.16602 9.74438ZM10.1014 20.949C9.90381 20.9384 9.75 20.7739 9.75 20.5756L9.75 15.0856C9.75 14.6704 10.0858 14.3339 10.5 14.3339L13.5 14.3339C13.9142 14.3339 14.25 14.6704 14.25 15.0856L14.25 20.5768C14.25 20.7754 14.0958 20.9399 13.8981 20.9503C12.6239 21.017 11.3644 21.0166 10.1014 20.949Z" fill="#FFFFFF" fill-opacity="1.000000" fill-rule="evenodd"/>
</svg>
