<svg width="24.000000" height="24.000000" viewBox="0 0 24 24" fill="none" xmlns="http://www.w3.org/2000/svg">
	<desc>
			Created with Pixso.
	</desc>
	<defs/>
	<rect width="24.000000" height="24.000000" fill="#FFFFFF" fill-opacity="0"/>
	<path d="M13 1C13 1.01746 12.9995 1.03479 12.9987 1.052C16.3464 1.53442 19.4966 5.29932 19.0002 9.5C18.743 10.7861 19.5443 11.4608 20.3829 12.1671L20.3831 12.1672C21.1748 12.834 21.9999 13.5288 22 14.7925C22.0002 16.5 21.0002 17.5 19.532 17.9719C19.532 17.9719 16.8429 19 12.0001 19C7.15735 19 4.46826 17.9719 4.46826 17.9719C3 17.5 2.00024 16.5483 2.00024 14.7925C1.9834 13.5396 2.80896 12.845 3.6051 12.1753C4.44763 11.4664 5.25708 10.7854 5 9.5C4.50366 5.29956 7.65369 1.53467 11.0013 1.05212C11.0005 1.03491 11 1.01746 11 1C11 0.447754 11.4478 0 12 0C12.5522 0 13 0.447754 13 1ZM8.22729 21.6C7.896 21.1582 7.98547 20.5314 8.42737 20.2C8.86914 19.8687 9.49597 19.9583 9.82739 20.4C10.9274 21.8667 13.1273 21.8667 14.2273 20.4C14.5587 19.9583 15.1855 19.8687 15.6273 20.2C16.0692 20.5314 16.1587 21.1582 15.8274 21.6C13.9274 24.1333 10.1273 24.1333 8.22729 21.6Z" fill="#FFFFFF" fill-opacity="1.000000" fill-rule="evenodd"/>
</svg>
