<svg width="24.000000" height="24.000000" viewBox="0 0 24 24" fill="none" xmlns="http://www.w3.org/2000/svg">
	<desc>
			Created with Pixso.
	</desc>
	<defs/>
	<rect width="24.000000" height="24.000000" fill="#FFFFFF" fill-opacity="0"/>
	<path d="M3 11.25C3 16.3611 3.89905 18.4512 7.5 19.173L7.5 20.25C7.5 20.6642 7.83582 21 8.25 21C8.66418 21 9 20.6642 9 20.25L9 19.3846C9.87451 19.4661 10.8695 19.5 12 19.5C13.1305 19.5 14.1255 19.4661 15 19.3846L15 20.25C15 20.6642 15.3358 21 15.75 21C16.1642 21 16.5 20.6642 16.5 20.25L16.5 19.173C20.101 18.4512 21 16.3611 21 11.25C21 4.45618 19.4115 3 12 3C4.5885 3 3 4.45618 3 11.25ZM12.75 8.25C12.75 8.28149 12.748 8.31262 12.7443 8.34302C13.8031 8.61328 14.6367 9.4469 14.907 10.5057C14.9374 10.502 14.9685 10.5 15 10.5L15.75 10.5C16.1642 10.5 16.5 10.8358 16.5 11.25C16.5 11.6642 16.1642 12 15.75 12L15 12C14.9685 12 14.9374 11.998 14.907 11.9943C14.6367 13.0531 13.8031 13.8867 12.7443 14.157C12.748 14.1874 12.75 14.2185 12.75 14.25L12.75 15C12.75 15.4142 12.4142 15.75 12 15.75C11.5858 15.75 11.25 15.4142 11.25 15L11.25 14.25C11.25 14.2185 11.252 14.1874 11.2557 14.157C10.1969 13.8867 9.36328 13.0531 9.09302 11.9943C9.06262 11.998 9.03149 12 9 12L8.25 12C7.83582 12 7.5 11.6642 7.5 11.25C7.5 10.8358 7.83582 10.5 8.25 10.5L9 10.5C9.03149 10.5 9.06262 10.502 9.09302 10.5057C9.36328 9.4469 10.1969 8.61328 11.2557 8.34302C11.252 8.31262 11.25 8.28149 11.25 8.25L11.25 7.5C11.25 7.08582 11.5858 6.75 12 6.75C12.4142 6.75 12.75 7.08582 12.75 7.5L12.75 8.25ZM12 12.75C12.8284 12.75 13.5 12.0784 13.5 11.25C13.5 10.4216 12.8284 9.75 12 9.75C11.1716 9.75 10.5 10.4216 10.5 11.25C10.5 12.0784 11.1716 12.75 12 12.75Z" fill="#FFFFFF" fill-opacity="1.000000" fill-rule="evenodd"/>
</svg>
