<svg width="24.000000" height="24.000000" viewBox="0 0 24 24" fill="none" xmlns="http://www.w3.org/2000/svg">
	<desc>
			Created with Pixso.
	</desc>
	<defs/>
	<rect width="24.000000" height="24.000000" fill="#FFFFFF" fill-opacity="0"/>
	<path d="M20.9854 10.2526C20.9901 10.4091 20.7755 10.469 20.6921 10.3364C20.2747 9.672 19.7875 9.06482 19.2441 8.51416C16.9884 6.22827 13.8177 4.96838 10.7927 4.55383C10.0771 4.45581 9.36096 4.40393 8.65906 4.39844C8.54016 4.39746 8.46973 4.26746 8.547 4.17712C8.77295 3.91333 9.09607 3.67932 9.55762 3.50354C11.2429 2.86218 18.1648 2.55762 19.8501 4.32166C20.5939 5.10022 20.9039 7.58203 20.9854 10.2526ZM20.6288 18.1536C20.6824 17.8915 20.7384 17.4626 20.7905 16.9143C20.9791 13.7012 19.8843 11.2985 18.1764 9.56775C16.2114 7.57642 13.3793 6.42224 10.5891 6.03992C9.48682 5.88892 8.41479 5.86121 7.42639 5.94177C3.30957 6.46582 2.54578 8.31665 3.21375 13.3838C4.04041 19.6558 5.7616 21 12.9652 21C17.9247 21 19.9695 20.6107 20.5944 18.1506C20.5969 18.1406 20.6124 18.1414 20.6124 18.1519C20.6124 18.1622 20.6267 18.1638 20.6288 18.1536ZM6.75 13.5C6.75 13.0858 7.08582 12.75 7.5 12.75L10.5 12.75C10.9142 12.75 11.25 13.0858 11.25 13.5C11.25 13.9142 10.9142 14.25 10.5 14.25L7.5 14.25C7.08582 14.25 6.75 13.9142 6.75 13.5ZM13.5 15.75C13.9142 15.75 14.25 16.0858 14.25 16.5C14.25 16.9142 13.9142 17.25 13.5 17.25L7.5 17.25C7.08582 17.25 6.75 16.9142 6.75 16.5C6.75 16.0858 7.08582 15.75 7.5 15.75L13.5 15.75Z" fill="#FFFFFF" fill-opacity="1.000000" fill-rule="evenodd"/>
</svg>
