<svg width="24.000000" height="24.000000" viewBox="0 0 24 24" fill="none" xmlns="http://www.w3.org/2000/svg">
	<desc>
			Created with Pixso.
	</desc>
	<defs>
		<linearGradient id="paint_linear_22_22138_0" x1="15.698186" y1="15.486369" x2="4.129090" y2="5.479199" gradientUnits="userSpaceOnUse">
			<stop stop-color="#535FE6" stop-opacity="0.839216"/>
			<stop offset="1.000000" stop-color="#20C1CF" stop-opacity="0.568627"/>
		</linearGradient>
	</defs>
	<rect width="24.000000" height="24.000000" fill="#FFFFFF" fill-opacity="0"/>
	<path d="M3.63672 7.5C3.49219 7.5 3.38672 7.36621 3.41992 7.22693C4.26367 3.85327 6.56836 3 12 3C17.4316 3 19.7363 3.85327 20.5801 7.22693C20.6133 7.36621 20.5078 7.5 20.3633 7.5L3.63672 7.5ZM12 21C4.58789 21 3 19.4115 3 12C3 11.5511 3.00586 11.1237 3.01758 10.7166C3.02148 10.5956 3.12109 10.5 3.24219 10.5L20.7578 10.5C20.8789 10.5 20.9785 10.5956 20.9824 10.7166C20.9941 11.1237 21 11.5511 21 12C21 19.4115 19.4121 21 12 21ZM17.25 16.5C17.25 16.9142 16.9141 17.25 16.5 17.25L13.5 17.25C13.0859 17.25 12.75 16.9142 12.75 16.5C12.75 16.0858 13.0859 15.75 13.5 15.75L16.5 15.75C16.9141 15.75 17.25 16.0858 17.25 16.5Z" fill="url(#paint_linear_22_22138_0)" fill-opacity="1.000000" fill-rule="evenodd"/>
</svg>
