<svg width="24.000000" height="24.000000" viewBox="0 0 24 24" fill="none" xmlns="http://www.w3.org/2000/svg">
	<desc>
			Created with Pixso.
	</desc>
	<defs/>
	<rect width="24.000000" height="24.000000" fill="#FFFFFF" fill-opacity="0"/>
	<path d="M10.0208 4.81982C10.4813 2.39343 14.0187 2.39343 14.4792 4.81982C14.7345 6.16431 16.1505 6.96765 17.463 6.5127C19.8317 5.69153 21.6003 8.7019 19.6923 10.3071C18.635 11.1967 18.635 12.8033 19.6923 13.6929C21.6003 15.2981 19.8317 18.3085 17.463 17.4873C16.1505 17.0323 14.7345 17.8357 14.4792 19.1802C14.0187 21.6066 10.4813 21.6066 10.0208 19.1802C9.7655 17.8357 8.34949 17.0323 7.03699 17.4873C4.66833 18.3085 2.89966 15.2981 4.80774 13.6929C5.86499 12.8033 5.86499 11.1967 4.80774 10.3071C2.89966 8.7019 4.66833 5.69153 7.03699 6.5127C8.34949 6.96765 9.7655 6.16431 10.0208 4.81982ZM12.25 15C10.5931 15 9.25 13.6569 9.25 12C9.25 10.3431 10.5931 9 12.25 9C13.9069 9 15.25 10.3431 15.25 12C15.25 13.6569 13.9069 15 12.25 15ZM12.25 13.5C11.4216 13.5 10.75 12.8284 10.75 12C10.75 11.1716 11.4216 10.5 12.25 10.5C13.0784 10.5 13.75 11.1716 13.75 12C13.75 12.8284 13.0784 13.5 12.25 13.5Z" fill="#FFFFFF" fill-opacity="1.000000" fill-rule="evenodd"/>
</svg>
