<svg width="24.000000" height="24.000000" viewBox="0 0 24 24" fill="none" xmlns="http://www.w3.org/2000/svg">
	<desc>
			Created with Pixso.
	</desc>
	<defs/>
	<rect width="24.000000" height="24.000000" fill="#FFFFFF" fill-opacity="0"/>
	<path d="M3.63623 7.5C3.49268 7.5 3.38586 7.36621 3.42065 7.22693C4.26392 3.85327 6.56799 3 12 3C17.432 3 19.7361 3.85327 20.5793 7.22693C20.6141 7.36621 20.5073 7.5 20.3638 7.5L3.63623 7.5ZM12 21C4.5885 21 3 19.4115 3 12C3 11.5511 3.00586 11.1237 3.01843 10.7166C3.02222 10.5956 3.12158 10.5 3.24255 10.5L20.7574 10.5C20.8784 10.5 20.9778 10.5956 20.9816 10.7166C20.9941 11.1237 21 11.5511 21 12C21 19.4115 19.4115 21 12 21ZM17.25 16.5C17.25 16.9142 16.9142 17.25 16.5 17.25L13.5 17.25C13.0858 17.25 12.75 16.9142 12.75 16.5C12.75 16.0858 13.0858 15.75 13.5 15.75L16.5 15.75C16.9142 15.75 17.25 16.0858 17.25 16.5Z" fill="#FFFFFF" fill-opacity="1.000000" fill-rule="evenodd"/>
</svg>
